<?xml version="1.0" encoding="UTF-8"?>
<svg xmlns="http://www.w3.org/2000/svg" xmlns:xlink="http://www.w3.org/1999/xlink" width="702px" height="450px" viewBox="0 0 702 450" version="1.1">
<defs>
<filter id="alpha" filterUnits="objectBoundingBox" x="0%" y="0%" width="100%" height="100%">
  <feColorMatrix type="matrix" in="SourceGraphic" values="0 0 0 0 1 0 0 0 0 1 0 0 0 0 1 0 0 0 1 0"/>
</filter>
<mask id="mask0">
  <g filter="url(#alpha)">
<rect x="0" y="0" width="702" height="450" style="fill:rgb(0%,0%,0%);fill-opacity:0.501961;stroke:none;"/>
  </g>
</mask>
<linearGradient id="linear0" gradientUnits="userSpaceOnUse" x1="0.5" y1="1" x2="0.5" y2="0" gradientTransform="matrix(657.027344,0,0,169.265625,2.722656,280.714844)">
<stop offset="0" style="stop-color:rgb(50.196078%,50.196078%,50.196078%);stop-opacity:0.25098;"/>
<stop offset="0.54" style="stop-color:rgb(50.196078%,50.196078%,50.196078%);stop-opacity:0.121569;"/>
<stop offset="1" style="stop-color:rgb(50.196078%,50.196078%,50.196078%);stop-opacity:0.101961;"/>
</linearGradient>
<clipPath id="clip1">
  <rect x="0" y="0" width="702" height="450"/>
</clipPath>
<g id="surface5" clip-path="url(#clip1)">
<path style=" stroke:none;fill-rule:nonzero;fill:url(#linear0);" d="M 659.75 385.160156 C 657.765625 380.140625 654.882812 375.53125 651.246094 371.546875 C 643.738281 360.414062 642.878906 346.085938 648.996094 334.132812 C 651.945312 328.523438 656.566406 322.71875 654.894531 316.585938 C 653.320312 312.566406 650.28125 309.292969 646.390625 307.425781 C 632.492188 299.058594 616.453125 294.933594 600.242188 295.558594 C 580.375 296.371094 560.570312 304.308594 541.085938 300.375 C 522.109375 296.53125 506.03125 287.019531 486.183594 285.890625 C 471.335938 285.046875 456.683594 285.992188 441.824219 284.367188 C 405.105469 280.386719 368.117188 279.5 331.25 281.726562 C 294.386719 279.5 257.398438 280.386719 220.683594 284.367188 C 205.863281 285.992188 191.183594 285.046875 176.324219 285.890625 C 156.410156 287.011719 140.367188 296.539062 121.386719 300.375 C 101.894531 304.3125 82.101562 296.371094 62.230469 295.558594 C 46.019531 294.933594 29.980469 299.058594 16.082031 307.425781 C 12.1875 309.289062 9.144531 312.5625 7.578125 316.585938 C 5.914062 322.703125 10.53125 328.507812 13.476562 334.132812 C 19.59375 346.085938 18.734375 360.414062 11.226562 371.546875 C 7.585938 375.527344 4.703125 380.140625 2.722656 385.160156 C 0.171875 395.691406 10.410156 404.960938 20.421875 409.148438 C 47.746094 420.574219 80.976562 415.046875 105.96875 430.957031 C 117.171875 438.09375 126.976562 449.554688 140.25 449.980469 C 149.230469 450.269531 157.390625 445.285156 165.230469 440.898438 C 176.960938 434.328125 189.226562 428.757812 201.890625 424.246094 C 212.792969 419.742188 224.574219 417.761719 236.347656 418.453125 C 254.171875 420.425781 331.226562 457.65625 365.949219 435.652344 C 389.742188 420.570312 408.296875 420.449219 426.167969 418.445312 C 437.941406 417.75 449.722656 419.730469 460.625 424.234375 C 473.289062 428.746094 485.554688 434.3125 497.285156 440.882812 C 505.121094 445.269531 513.289062 450.257812 522.265625 449.96875 C 535.539062 449.519531 545.339844 438.078125 556.546875 430.941406 C 581.527344 415.027344 614.75 420.554688 642.097656 409.136719 C 652.0625 404.945312 662.320312 395.699219 659.75 385.160156 Z M 659.75 385.160156 "/>
</g>
<mask id="mask1">
  <g filter="url(#alpha)">
<rect x="0" y="0" width="702" height="450" style="fill:rgb(0%,0%,0%);fill-opacity:0.6;stroke:none;"/>
  </g>
</mask>
<clipPath id="clip2">
  <rect x="0" y="0" width="702" height="450"/>
</clipPath>
<g id="surface8" clip-path="url(#clip2)">
<path style=" stroke:none;fill-rule:nonzero;fill:rgb(42.352941%,38.823529%,100%);fill-opacity:1;" d="M 25.96875 161.671875 C 28.03125 160.773438 30.285156 160.410156 32.527344 160.617188 C 36.214844 161.648438 39.042969 164.617188 39.902344 168.347656 C 40.691406 172 41.28125 175.695312 41.664062 179.410156 C 42.089844 183.1875 44.171875 186.582031 47.34375 188.671875 C 50.820312 189.984375 54.609375 190.207031 58.214844 189.316406 C 63.023438 188.761719 67.875 188.714844 72.691406 189.179688 C 76.742188 189.570312 81.484375 190.933594 82.667969 194.824219 C 83.015625 198.132812 82.238281 201.460938 80.457031 204.273438 C 77.925781 210.035156 77.980469 216.601562 80.609375 222.316406 C 83.359375 227.878906 88.933594 232.023438 91.265625 237.890625 C 91.941406 239.359375 92.136719 241.003906 91.828125 242.589844 C 91.484375 243.703125 90.917969 244.730469 90.160156 245.613281 C 88.335938 247.96875 86.148438 250.039062 84.484375 252.515625 C 81.339844 257.917969 79.675781 264.050781 79.660156 270.296875 C 79.261719 276.394531 79.296875 282.515625 79.761719 288.609375 C 75.234375 287.132812 70.234375 288.445312 65.566406 287.476562 C 55.628906 285.425781 49.429688 273.671875 39.3125 272.957031 C 34.523438 272.617188 29.375 274.875 25.105469 272.683594 C 23.066406 271.507812 21.46875 269.691406 20.558594 267.519531 C 18.753906 263.675781 18.34375 259.320312 19.394531 255.203125 C 20.527344 252.488281 21.179688 249.59375 21.320312 246.652344 C 20.910156 244.148438 19.691406 241.84375 17.847656 240.097656 C 12.929688 234.878906 5.785156 231.683594 2.253906 225.4375 C -1.035156 219.363281 -0.246094 211.890625 4.238281 206.636719 C 5.5 205.40625 6.695312 204.105469 7.816406 202.746094 C 9.363281 200.238281 10.207031 197.359375 10.253906 194.414062 C 10.742188 187.398438 9.515625 179.972656 11.8125 173.160156 C 13.875 167.011719 20.160156 163.738281 25.96875 161.671875 Z M 25.96875 161.671875 "/>
</g>
<mask id="mask2">
  <g filter="url(#alpha)">
<rect x="0" y="0" width="702" height="450" style="fill:rgb(0%,0%,0%);fill-opacity:0.6;stroke:none;"/>
  </g>
</mask>
<clipPath id="clip3">
  <rect x="0" y="0" width="702" height="450"/>
</clipPath>
<g id="surface11" clip-path="url(#clip3)">
<path style="fill:none;stroke-width:1;stroke-linecap:butt;stroke-linejoin:miter;stroke:rgb(32.54902%,32.941176%,38.039216%);stroke-opacity:1;stroke-miterlimit:10;" d="M 159.140271 364.419958 C 159.140271 364.419958 163.615965 389.276729 169.426729 392.242007 " transform="matrix(4.5,0,0,4.5,-690.057,-1478.007)"/>
</g>
<mask id="mask3">
  <g filter="url(#alpha)">
<rect x="0" y="0" width="702" height="450" style="fill:rgb(0%,0%,0%);fill-opacity:0.6;stroke:none;"/>
  </g>
</mask>
<clipPath id="clip4">
  <rect x="0" y="0" width="702" height="450"/>
</clipPath>
<g id="surface14" clip-path="url(#clip4)">
<path style="fill:none;stroke-width:1;stroke-linecap:butt;stroke-linejoin:miter;stroke:rgb(32.54902%,32.941176%,38.039216%);stroke-opacity:1;stroke-miterlimit:10;" d="M 186.233396 406.400167 C 186.233396 406.400167 181.439125 407.056417 176.650062 411.980028 " transform="matrix(4.5,0,0,4.5,-755.937,-1635.957)"/>
</g>
<mask id="mask4">
  <g filter="url(#alpha)">
<rect x="0" y="0" width="702" height="450" style="fill:rgb(0%,0%,0%);fill-opacity:0.6;stroke:none;"/>
  </g>
</mask>
<clipPath id="clip5">
  <rect x="0" y="0" width="702" height="450"/>
</clipPath>
<g id="surface17" clip-path="url(#clip5)">
<path style="fill:none;stroke-width:1;stroke-linecap:butt;stroke-linejoin:miter;stroke:rgb(32.54902%,32.941176%,38.039216%);stroke-opacity:1;stroke-miterlimit:10;" d="M 133.563076 442.438049 C 130.964118 440.171556 127.539639 439.087354 124.109951 439.444125 " transform="matrix(4.5,0,0,4.5,-558.2565,-1760.022)"/>
</g>
<mask id="mask5">
  <g filter="url(#alpha)">
<rect x="0" y="0" width="702" height="450" style="fill:rgb(0%,0%,0%);fill-opacity:0.6;stroke:none;"/>
  </g>
</mask>
<clipPath id="clip6">
  <rect x="0" y="0" width="702" height="450"/>
</clipPath>
<g id="surface20" clip-path="url(#clip6)">
<path style="fill:none;stroke-width:1;stroke-linecap:butt;stroke-linejoin:miter;stroke:rgb(32.54902%,32.941176%,38.039216%);stroke-opacity:1;stroke-miterlimit:10;" d="M 200.934771 467.639757 C 200.934771 467.639757 194.202132 468.211806 191.709944 470.796875 " transform="matrix(4.5,0,0,4.5,-812.601,-1866.375)"/>
</g>
<mask id="mask6">
  <g filter="url(#alpha)">
<rect x="0" y="0" width="702" height="450" style="fill:rgb(0%,0%,0%);fill-opacity:0.6;stroke:none;"/>
  </g>
</mask>
<clipPath id="clip7">
  <rect x="0" y="0" width="702" height="450"/>
</clipPath>
<g id="surface23" clip-path="url(#clip7)">
<path style="fill:none;stroke-width:1;stroke-linecap:butt;stroke-linejoin:miter;stroke:rgb(32.54902%,32.941176%,38.039216%);stroke-opacity:1;stroke-miterlimit:10;" d="M 160.878757 501.128993 C 158.355319 500.810417 155.798028 501.3625 153.629625 502.694097 " transform="matrix(4.5,0,0,4.5,-669.3255,-1992.0375)"/>
</g>
<mask id="mask7">
  <g filter="url(#alpha)">
<rect x="0" y="0" width="702" height="450" style="fill:rgb(0%,0%,0%);fill-opacity:0.6;stroke:none;"/>
  </g>
</mask>
<clipPath id="clip8">
  <rect x="0" y="0" width="702" height="450"/>
</clipPath>
<g id="surface26" clip-path="url(#clip8)">
<path style=" stroke:none;fill-rule:nonzero;fill:rgb(42.352941%,38.823529%,100%);fill-opacity:1;" d="M 649.527344 73.808594 C 646.222656 72.359375 642.605469 71.777344 639.019531 72.121094 C 633.113281 73.777344 628.585938 78.527344 627.21875 84.503906 C 625.964844 90.375 625.019531 96.308594 624.394531 102.28125 C 623.710938 108.335938 620.378906 113.773438 615.292969 117.128906 C 609.996094 119.960938 603.742188 118.839844 597.867188 118.160156 C 590.167969 117.261719 582.394531 117.183594 574.675781 117.917969 C 568.191406 118.542969 560.59375 120.734375 558.6875 126.957031 C 557.132812 132.046875 560.222656 137.222656 562.289062 142.128906 C 566.347656 151.363281 566.253906 161.894531 562.035156 171.058594 C 557.535156 180.128906 548.691406 186.621094 544.9375 196.023438 C 543.855469 198.375 543.542969 201.007812 544.035156 203.546875 C 544.589844 205.332031 545.5 206.980469 546.714844 208.398438 C 549.664062 212.175781 553.144531 215.5 555.8125 219.460938 C 560.847656 228.117188 563.515625 237.945312 563.542969 247.960938 C 564.179688 257.730469 564.128906 267.539062 563.382812 277.304688 C 570.640625 274.914062 578.683594 277.046875 586.144531 275.503906 C 602.0625 272.222656 612.007812 253.378906 628.226562 252.230469 C 635.878906 251.691406 644.148438 255.296875 650.992188 251.78125 C 654.265625 249.886719 656.828125 246.96875 658.277344 243.476562 C 661.125 237.3125 661.746094 230.355469 660.042969 223.785156 C 658.21875 219.425781 657.175781 214.78125 656.960938 210.058594 C 657.609375 206.042969 659.566406 202.351562 662.527344 199.558594 C 670.410156 191.1875 681.875 186.058594 687.519531 176.058594 C 692.796875 166.316406 691.535156 154.332031 684.34375 145.90625 C 682.320312 143.933594 680.40625 141.851562 678.605469 139.675781 C 676.105469 135.664062 674.75 131.046875 674.691406 126.320312 C 673.914062 115.070312 675.824219 103.175781 672.1875 92.253906 C 668.882812 82.335938 658.816406 77.074219 649.527344 73.808594 Z M 649.527344 73.808594 "/>
</g>
<mask id="mask8">
  <g filter="url(#alpha)">
<rect x="0" y="0" width="702" height="450" style="fill:rgb(0%,0%,0%);fill-opacity:0.6;stroke:none;"/>
  </g>
</mask>
<clipPath id="clip9">
  <rect x="0" y="0" width="702" height="450"/>
</clipPath>
<g id="surface29" clip-path="url(#clip9)">
<path style="fill:none;stroke-width:1;stroke-linecap:butt;stroke-linejoin:miter;stroke:rgb(32.54902%,32.941176%,38.039216%);stroke-opacity:1;stroke-miterlimit:10;" d="M 920.100139 245.399882 C 920.100139 245.399882 912.927396 285.242764 903.608819 289.993632 " transform="matrix(4.5,0,0,4.5,-3491.1225,-1030.194)"/>
</g>
<mask id="mask9">
  <g filter="url(#alpha)">
<rect x="0" y="0" width="702" height="450" style="fill:rgb(0%,0%,0%);fill-opacity:0.6;stroke:none;"/>
  </g>
</mask>
<clipPath id="clip10">
  <rect x="0" y="0" width="702" height="450"/>
</clipPath>
<g id="surface32" clip-path="url(#clip10)">
<path style="fill:none;stroke-width:1;stroke-linecap:butt;stroke-linejoin:miter;stroke:rgb(32.54902%,32.941176%,38.039216%);stroke-opacity:1;stroke-miterlimit:10;" d="M 882.440069 312.68966 C 882.440069 312.68966 890.123229 313.745215 897.800312 321.636708 " transform="matrix(4.5,0,0,4.5,-3411.4725,-1283.373)"/>
</g>
<mask id="mask10">
  <g filter="url(#alpha)">
<rect x="0" y="0" width="702" height="450" style="fill:rgb(0%,0%,0%);fill-opacity:0.6;stroke:none;"/>
  </g>
</mask>
<clipPath id="clip11">
  <rect x="0" y="0" width="702" height="450"/>
</clipPath>
<g id="surface35" clip-path="url(#clip11)">
<path style="fill:none;stroke-width:1;stroke-linecap:butt;stroke-linejoin:miter;stroke:rgb(32.54902%,32.941176%,38.039216%);stroke-opacity:1;stroke-miterlimit:10;" d="M 967.919618 370.445576 C 972.085417 366.811896 977.574132 365.073181 983.072396 365.646097 " transform="matrix(4.5,0,0,4.5,-3733.0875,-1482.1965)"/>
</g>
<mask id="mask11">
  <g filter="url(#alpha)">
<rect x="0" y="0" width="702" height="450" style="fill:rgb(0%,0%,0%);fill-opacity:0.6;stroke:none;"/>
  </g>
</mask>
<clipPath id="clip12">
  <rect x="0" y="0" width="702" height="450"/>
</clipPath>
<g id="surface38" clip-path="url(#clip12)">
<path style="fill:none;stroke-width:1;stroke-linecap:butt;stroke-linejoin:miter;stroke:rgb(32.54902%,32.941176%,38.039216%);stroke-opacity:1;stroke-miterlimit:10;" d="M 861.849938 410.850333 C 861.849938 410.850333 872.639868 411.766132 876.636396 415.911097 " transform="matrix(4.5,0,0,4.5,-3334.0005,-1652.7015)"/>
</g>
<mask id="mask12">
  <g filter="url(#alpha)">
<rect x="0" y="0" width="702" height="450" style="fill:rgb(0%,0%,0%);fill-opacity:0.6;stroke:none;"/>
  </g>
</mask>
<clipPath id="clip13">
  <rect x="0" y="0" width="702" height="450"/>
</clipPath>
<g id="surface41" clip-path="url(#clip13)">
<path style="fill:none;stroke-width:1;stroke-linecap:butt;stroke-linejoin:miter;stroke:rgb(32.54902%,32.941176%,38.039216%);stroke-opacity:1;stroke-miterlimit:10;" d="M 942.17 464.519736 C 946.216007 464.004111 950.316701 464.889528 953.789792 467.028417 " transform="matrix(4.5,0,0,4.5,-3636.2025,-1854.081)"/>
</g>
<linearGradient id="linear1" gradientUnits="userSpaceOnUse" x1="0.5" y1="1" x2="0.5" y2="0" gradientTransform="matrix(536.113281,0,0,365.210938,55.449219,0)">
<stop offset="0" style="stop-color:rgb(50.196078%,50.196078%,50.196078%);stop-opacity:0.25098;"/>
<stop offset="0.54" style="stop-color:rgb(50.196078%,50.196078%,50.196078%);stop-opacity:0.121569;"/>
<stop offset="1" style="stop-color:rgb(50.196078%,50.196078%,50.196078%);stop-opacity:0.101961;"/>
</linearGradient>
<mask id="mask13">
  <g filter="url(#alpha)">
<rect x="0" y="0" width="702" height="450" style="fill:rgb(0%,0%,0%);fill-opacity:0.501961;stroke:none;"/>
  </g>
</mask>
<clipPath id="clip14">
  <rect x="0" y="0" width="702" height="450"/>
</clipPath>
<g id="surface44" clip-path="url(#clip14)">
<path style=" stroke:none;fill-rule:nonzero;fill:rgb(42.352941%,38.823529%,100%);fill-opacity:1;" d="M 83.421875 65.773438 L 278.121094 65.773438 L 278.121094 73.886719 L 83.421875 73.886719 Z M 83.421875 65.773438 "/>
</g>
<mask id="mask14">
  <g filter="url(#alpha)">
<rect x="0" y="0" width="702" height="450" style="fill:rgb(0%,0%,0%);fill-opacity:0.501961;stroke:none;"/>
  </g>
</mask>
<clipPath id="clip15">
  <rect x="0" y="0" width="702" height="450"/>
</clipPath>
<g id="surface47" clip-path="url(#clip15)">
<path style=" stroke:none;fill-rule:nonzero;fill:rgb(42.352941%,38.823529%,100%);fill-opacity:1;" d="M 83.421875 81.996094 L 278.121094 81.996094 L 278.121094 90.109375 L 83.421875 90.109375 Z M 83.421875 81.996094 "/>
</g>
<mask id="mask15">
  <g filter="url(#alpha)">
<rect x="0" y="0" width="702" height="450" style="fill:rgb(0%,0%,0%);fill-opacity:0.501961;stroke:none;"/>
  </g>
</mask>
<clipPath id="clip16">
  <rect x="0" y="0" width="702" height="450"/>
</clipPath>
<g id="surface50" clip-path="url(#clip16)">
<path style=" stroke:none;fill-rule:nonzero;fill:rgb(42.352941%,38.823529%,100%);fill-opacity:1;" d="M 83.421875 98.222656 L 278.121094 98.222656 L 278.121094 106.335938 L 83.421875 106.335938 Z M 83.421875 98.222656 "/>
</g>
<mask id="mask16">
  <g filter="url(#alpha)">
<rect x="0" y="0" width="702" height="450" style="fill:rgb(0%,0%,0%);fill-opacity:0.501961;stroke:none;"/>
  </g>
</mask>
<clipPath id="clip17">
  <rect x="0" y="0" width="702" height="450"/>
</clipPath>
<g id="surface53" clip-path="url(#clip17)">
<path style=" stroke:none;fill-rule:nonzero;fill:rgb(42.352941%,38.823529%,100%);fill-opacity:1;" d="M 150.535156 114.445312 L 278.121094 114.445312 L 278.121094 122.558594 L 150.535156 122.558594 Z M 150.535156 114.445312 "/>
</g>
<mask id="mask17">
  <g filter="url(#alpha)">
<rect x="0" y="0" width="702" height="450" style="fill:rgb(0%,0%,0%);fill-opacity:0.501961;stroke:none;"/>
  </g>
</mask>
<clipPath id="clip18">
  <rect x="0" y="0" width="702" height="450"/>
</clipPath>
<g id="surface56" clip-path="url(#clip18)">
<path style=" stroke:none;fill-rule:nonzero;fill:rgb(42.352941%,38.823529%,100%);fill-opacity:1;" d="M 83.421875 130.671875 L 185.933594 130.671875 L 185.933594 138.785156 L 83.421875 138.785156 Z M 83.421875 130.671875 "/>
</g>
<mask id="mask18">
  <g filter="url(#alpha)">
<rect x="0" y="0" width="702" height="450" style="fill:rgb(0%,0%,0%);fill-opacity:0.501961;stroke:none;"/>
  </g>
</mask>
<clipPath id="clip19">
  <rect x="0" y="0" width="702" height="450"/>
</clipPath>
<g id="surface59" clip-path="url(#clip19)">
<path style=" stroke:none;fill-rule:nonzero;fill:rgb(42.352941%,38.823529%,100%);fill-opacity:1;" d="M 138.734375 146.898438 L 217.648438 146.898438 L 217.648438 155.011719 L 138.734375 155.011719 Z M 138.734375 146.898438 "/>
</g>
<mask id="mask19">
  <g filter="url(#alpha)">
<rect x="0" y="0" width="702" height="450" style="fill:rgb(0%,0%,0%);fill-opacity:0.501961;stroke:none;"/>
  </g>
</mask>
<clipPath id="clip20">
  <rect x="0" y="0" width="702" height="450"/>
</clipPath>
<g id="surface62" clip-path="url(#clip20)">
<path style=" stroke:none;fill-rule:nonzero;fill:rgb(42.352941%,38.823529%,100%);fill-opacity:1;" d="M 303.933594 122.558594 L 533.300781 122.558594 L 533.300781 254.570312 L 303.933594 254.570312 Z M 303.933594 122.558594 "/>
</g>
<mask id="mask20">
  <g filter="url(#alpha)">
<rect x="0" y="0" width="702" height="450" style="fill:rgb(0%,0%,0%);fill-opacity:0.501961;stroke:none;"/>
  </g>
</mask>
<linearGradient id="linear2" gradientUnits="userSpaceOnUse" x1="0.5" y1="1" x2="0.5" y2="0" gradientTransform="matrix(147.007812,0,0,297.558594,555.109375,118.273437)">
<stop offset="0" style="stop-color:rgb(50.196078%,50.196078%,50.196078%);stop-opacity:0.25098;"/>
<stop offset="0.54" style="stop-color:rgb(50.196078%,50.196078%,50.196078%);stop-opacity:0.121569;"/>
<stop offset="1" style="stop-color:rgb(50.196078%,50.196078%,50.196078%);stop-opacity:0.101961;"/>
</linearGradient>
<clipPath id="clip21">
  <rect x="0" y="0" width="702" height="450"/>
</clipPath>
<g id="surface65" clip-path="url(#clip21)">
<path style=" stroke:none;fill-rule:nonzero;fill:url(#linear2);" d="M 698.484375 256.90625 C 698.960938 256.296875 699.222656 255.546875 699.222656 254.773438 L 699.222656 254.714844 L 699.289062 254.484375 L 699.289062 254.390625 C 699.292969 254.316406 699.292969 254.246094 699.289062 254.171875 L 699.289062 254.082031 C 699.300781 253.996094 699.300781 253.90625 699.289062 253.816406 C 698.839844 250.867188 681.328125 231.648438 676.945312 208.203125 C 676.460938 205.648438 675.738281 203.148438 674.785156 200.730469 C 674.917969 199.527344 674.839844 198.308594 674.550781 197.132812 C 673.347656 194.277344 672.839844 191.179688 673.074219 188.089844 C 673.175781 187.699219 673.3125 187.316406 673.480469 186.949219 C 674.398438 185.597656 675.242188 184.195312 676.007812 182.75 C 676.292969 182.277344 676.539062 181.785156 676.746094 181.273438 C 679.445312 174.175781 671.101562 166.875 672.636719 159.449219 C 673.304688 156.238281 675.789062 153.4375 675.71875 150.167969 C 675.125 146.339844 672.359375 143.207031 668.632812 142.144531 C 665.0625 140.761719 661.132812 140.347656 657.628906 138.8125 C 649.953125 135.410156 645.75 127.203125 638.730469 122.636719 C 629.828125 116.847656 618.214844 117.882812 607.539062 119.378906 C 606.828125 119.484375 606.210938 119.9375 605.902344 120.589844 L 605.800781 120.589844 C 605.71875 120.824219 605.625 121.039062 605.519531 121.285156 C 603.828125 123.765625 601.644531 125.871094 599.101562 127.472656 C 595.9375 129.316406 593.199219 131.808594 591.070312 134.789062 C 590.796875 135.238281 590.570312 135.6875 590.367188 136.136719 C 586.386719 143.238281 591.175781 146.308594 597.007812 148.015625 C 596.832031 149.027344 596.742188 150.058594 596.742188 151.085938 C 596.921875 161.578125 605.558594 169.949219 616.050781 169.804688 C 616.890625 169.800781 617.730469 169.746094 618.566406 169.640625 L 619.1875 170.046875 L 619.324219 170.046875 C 621.304688 171.335938 622.847656 173.195312 623.75 175.378906 L 617.570312 180.097656 C 617.570312 180.097656 617.824219 180.746094 618.191406 181.78125 L 593.890625 192.976562 C 584.691406 193.429688 569.789062 164.417969 569.789062 164.417969 C 569.789062 164.417969 567.574219 147.792969 559.710938 144.804688 C 557.335938 143.90625 556.394531 145.785156 556.226562 148.855469 C 552.707031 152.539062 558.617188 173.25 558.617188 173.25 L 577.457031 206.503906 C 579.214844 209.910156 579.671875 212.042969 587.972656 213.328125 C 594.808594 214.375 616.109375 206.804688 623.523438 204.066406 L 623.871094 207.019531 C 623.011719 209.265625 622.628906 211.667969 622.75 214.074219 C 622.75 219.511719 625.175781 227.417969 637.019531 233.710938 C 637.019531 233.710938 649.246094 249.515625 647.890625 264.4375 C 647.890625 264.4375 648.480469 265.058594 649.425781 265.867188 C 649.703125 269.878906 648.703125 273.871094 646.574219 277.277344 C 646.289062 277.542969 646.164062 277.941406 646.242188 278.324219 C 646.148438 278.777344 646.355469 279.238281 646.757812 279.46875 L 631.324219 306.5 C 630.746094 307.238281 630.167969 307.976562 629.566406 308.714844 C 626.703125 312.367188 623.519531 315.757812 620.058594 318.851562 C 617.960938 320.582031 616.023438 322.503906 614.277344 324.589844 C 612.554688 327.679688 611.851562 331.238281 612.269531 334.75 C 613.390625 339.515625 613.84375 344.417969 613.621094 349.308594 L 611.621094 384.273438 C 610.949219 388.175781 610.027344 392.03125 608.855469 395.816406 L 608.554688 395.816406 C 603.46875 401.460938 596.714844 405.335938 589.273438 406.875 C 577.445312 408.988281 577.882812 414.976562 581.382812 415.832031 C 584.882812 416.6875 627.394531 414.976562 627.394531 414.976562 C 628.316406 413.121094 628.71875 411.050781 628.558594 408.984375 C 642.132812 407.675781 660.929688 405.464844 660.929688 405.464844 C 660.929688 405.464844 663.503906 399.277344 659.761719 396.574219 C 658.355469 395.492188 657.3125 394.007812 656.769531 392.320312 C 656.550781 391.375 656.320312 390.296875 656.070312 389.167969 C 656.011719 388.617188 656.011719 388.269531 656.011719 388.269531 L 655.882812 388.269531 C 655.175781 385.433594 654.875 382.511719 654.984375 379.589844 C 656.082031 374.683594 658.929688 346.332031 651.914062 338.238281 C 649.242188 335.054688 648.710938 330.585938 650.566406 326.867188 C 660.320312 319.5625 669.363281 311.351562 677.566406 302.335938 C 677.949219 302.652344 678.304688 302.972656 678.636719 303.285156 L 678.855469 303.503906 C 678.855469 303.503906 702.023438 292.035156 702.117188 271.789062 C 702.164062 266.605469 700.914062 261.488281 698.484375 256.90625 Z M 624.285156 399.699219 C 624.242188 398.960938 624.269531 398.21875 624.367188 397.484375 L 623.628906 397.402344 C 623.921875 393.988281 625.257812 390.742188 627.449219 388.101562 C 631.476562 380.808594 634.324219 372.921875 635.886719 364.738281 L 640.144531 380.839844 C 640.144531 380.839844 640.59375 384.175781 640.6875 387.699219 L 640.617188 387.699219 C 636.433594 393.179688 630.765625 397.347656 624.285156 399.699219 Z M 624.285156 399.699219 "/>
</g>
<mask id="mask21">
  <g filter="url(#alpha)">
<rect x="0" y="0" width="702" height="450" style="fill:rgb(0%,0%,0%);fill-opacity:0.0509804;stroke:none;"/>
  </g>
</mask>
<clipPath id="clip22">
  <rect x="0" y="0" width="702" height="450"/>
</clipPath>
<g id="surface68" clip-path="url(#clip22)">
<path style=" stroke:none;fill-rule:nonzero;fill:rgb(0%,0%,0%);fill-opacity:1;" d="M 643.519531 191.171875 C 637.5 193.394531 631.984375 196.792969 627.289062 201.167969 C 627.289062 201.167969 598.976562 212.417969 591.066406 211.164062 C 583.15625 209.90625 582.742188 207.828125 581.070312 204.523438 L 563.164062 172.074219 C 563.164062 172.074219 555.671875 145.007812 563.164062 147.925781 C 570.660156 150.839844 572.753906 167.097656 572.753906 167.097656 C 572.753906 167.097656 586.917969 195.414062 595.65625 195 L 619.367188 183.699219 C 619.367188 183.699219 624.765625 175.785156 627.28125 176.207031 C 629.796875 176.628906 643.519531 191.171875 643.519531 191.171875 Z M 643.519531 191.171875 "/>
</g>
<mask id="mask22">
  <g filter="url(#alpha)">
<rect x="0" y="0" width="702" height="450" style="fill:rgb(0%,0%,0%);fill-opacity:0.0509804;stroke:none;"/>
  </g>
</mask>
<clipPath id="clip23">
  <rect x="0" y="0" width="702" height="450"/>
</clipPath>
<g id="surface71" clip-path="url(#clip23)">
<path style=" stroke:none;fill-rule:nonzero;fill:rgb(0%,0%,0%);fill-opacity:1;" d="M 626.421875 175.824219 L 618.121094 182.34375 C 618.121094 182.34375 622.273438 193.207031 621.234375 197.015625 C 620.195312 200.820312 637.84375 191.042969 637.84375 191.042969 L 630.582031 174.742188 Z M 626.421875 175.824219 "/>
</g>
<mask id="mask23">
  <g filter="url(#alpha)">
<rect x="0" y="0" width="702" height="450" style="fill:rgb(0%,0%,0%);fill-opacity:0.0509804;stroke:none;"/>
  </g>
</mask>
<clipPath id="clip24">
  <rect x="0" y="0" width="702" height="450"/>
</clipPath>
<g id="surface74" clip-path="url(#clip24)">
<path style=" stroke:none;fill-rule:nonzero;fill:rgb(0%,0%,0%);fill-opacity:1;" d="M 647.058594 277.25 L 624.160156 318.46875 L 639.570312 378.402344 C 639.570312 378.402344 641.238281 391.726562 638.738281 392.972656 L 656.226562 392.972656 C 654.769531 387.816406 653.929688 382.507812 653.722656 377.152344 C 654.34375 373.203125 657.472656 344.703125 650.773438 336.765625 C 644.070312 328.828125 654.105469 318.445312 654.105469 318.445312 L 674.089844 286.804688 Z M 647.058594 277.25 "/>
</g>
<mask id="mask24">
  <g filter="url(#alpha)">
<rect x="0" y="0" width="702" height="450" style="fill:rgb(0%,0%,0%);fill-opacity:0.101961;stroke:none;"/>
  </g>
</mask>
<clipPath id="clip25">
  <rect x="0" y="0" width="702" height="450"/>
</clipPath>
<g id="surface77" clip-path="url(#clip25)">
<path style=" stroke:none;fill-rule:nonzero;fill:rgb(0%,0%,0%);fill-opacity:1;" d="M 648.316406 260.589844 C 648.316406 260.589844 649.304688 274.132812 645.695312 277.691406 C 645.441406 277.929688 645.316406 278.277344 645.359375 278.625 C 645.402344 278.972656 645.609375 279.277344 645.917969 279.445312 L 656.640625 285.160156 L 666.230469 266.839844 Z M 648.316406 260.589844 "/>
</g>
<mask id="mask25">
  <g filter="url(#alpha)">
<rect x="0" y="0" width="702" height="450" style="fill:rgb(0%,0%,0%);fill-opacity:0.101961;stroke:none;"/>
  </g>
</mask>
<clipPath id="clip26">
  <rect x="0" y="0" width="702" height="450"/>
</clipPath>
<g id="surface80" clip-path="url(#clip26)">
<path style=" stroke:none;fill-rule:nonzero;fill:rgb(0%,0%,0%);fill-opacity:1;" d="M 648.316406 260.914062 C 648.316406 260.914062 649.304688 274.453125 645.695312 278.015625 C 645.441406 278.253906 645.316406 278.601562 645.359375 278.949219 C 645.402344 279.296875 645.609375 279.601562 645.917969 279.769531 L 656.640625 285.484375 L 666.230469 267.164062 Z M 648.316406 260.914062 "/>
</g>
<mask id="mask26">
  <g filter="url(#alpha)">
<rect x="0" y="0" width="702" height="450" style="fill:rgb(0%,0%,0%);fill-opacity:0.101961;stroke:none;"/>
  </g>
</mask>
<clipPath id="clip27">
  <rect x="0" y="0" width="702" height="450"/>
</clipPath>
<g id="surface83" clip-path="url(#clip27)">
<path style=" stroke:none;fill-rule:nonzero;fill:rgb(0%,0%,0%);fill-opacity:1;" d="M 659.136719 264.757812 C 659.136719 264.757812 654.058594 281.820312 647.617188 286.808594 C 647.375 286.992188 647.25 287.292969 647.296875 287.59375 C 647.339844 287.890625 647.546875 288.144531 647.832031 288.246094 C 653.15625 290.1875 670.265625 296.722656 676.210938 302.648438 L 676.417969 302.855469 C 676.417969 302.855469 712.015625 284.742188 692.863281 253.929688 Z M 659.136719 264.757812 "/>
</g>
<mask id="mask27">
  <g filter="url(#alpha)">
<rect x="0" y="0" width="702" height="450" style="fill:rgb(0%,0%,0%);fill-opacity:0.101961;stroke:none;"/>
  </g>
</mask>
<clipPath id="clip28">
  <rect x="0" y="0" width="702" height="450"/>
</clipPath>
<g id="surface86" clip-path="url(#clip28)">
<path style=" stroke:none;fill-rule:nonzero;fill:rgb(0%,0%,0%);fill-opacity:1;" d="M 629.90625 179.722656 C 627.257812 181.5 624.367188 182.882812 621.320312 183.820312 L 624.179688 209.285156 C 624.179688 209.285156 617.496094 224.257812 636.625 234.714844 C 636.625 234.714844 648.238281 250.152344 646.945312 264.726562 C 646.945312 264.726562 653.179688 271.410156 657.347656 269.746094 C 661.511719 268.085938 657.761719 270.582031 658.59375 270.167969 C 659.425781 269.753906 661.085938 273.503906 674 270.203125 C 686.914062 266.898438 696.128906 258.1875 695.691406 255.265625 C 695.253906 252.347656 678.695312 233.589844 674.566406 210.640625 C 670.441406 187.691406 645.9375 171.425781 645.9375 171.425781 C 645.9375 171.425781 645.128906 171.878906 643.726562 172.476562 C 638.929688 174.515625 634.308594 176.9375 629.90625 179.722656 Z M 629.90625 179.722656 "/>
</g>
<mask id="mask28">
  <g filter="url(#alpha)">
<rect x="0" y="0" width="702" height="450" style="fill:rgb(0%,0%,0%);fill-opacity:0.101961;stroke:none;"/>
  </g>
</mask>
<clipPath id="clip29">
  <rect x="0" y="0" width="702" height="450"/>
</clipPath>
<g id="surface89" clip-path="url(#clip29)">
<path style=" stroke:none;fill-rule:nonzero;fill:rgb(0%,0%,0%);fill-opacity:1;" d="M 647.296875 286.945312 C 647.265625 287.316406 647.488281 287.65625 647.839844 287.78125 C 656.679688 290.84375 665.171875 294.847656 673.164062 299.714844 C 665.109375 294.398438 656.417969 290.109375 647.296875 286.945312 Z M 647.296875 286.945312 "/>
<path style=" stroke:none;fill-rule:nonzero;fill:rgb(0%,0%,0%);fill-opacity:1;" d="M 692.863281 253.515625 L 692.128906 253.769531 C 708.492188 282.375 677.671875 299.667969 674.980469 301.09375 C 675.429688 301.449219 675.851562 301.832031 676.25 302.238281 L 676.457031 302.445312 C 676.457031 302.445312 712.015625 284.328125 692.863281 253.515625 Z M 692.863281 253.515625 "/>
</g>
<mask id="mask29">
  <g filter="url(#alpha)">
<rect x="0" y="0" width="702" height="450" style="fill:rgb(0%,0%,0%);fill-opacity:0.101961;stroke:none;"/>
  </g>
</mask>
<clipPath id="clip30">
  <rect x="0" y="0" width="702" height="450"/>
</clipPath>
<g id="surface92" clip-path="url(#clip30)">
<path style=" stroke:none;fill-rule:nonzero;fill:rgb(0%,0%,0%);fill-opacity:1;" d="M 630.820312 156.496094 L 612.5 169.007812 C 615.023438 169.882812 617.425781 171.082031 619.644531 172.570312 C 625.480469 171.445312 630.285156 167.320312 632.277344 161.722656 C 631.277344 160.097656 631.71875 158.65625 630.820312 156.496094 Z M 630.820312 156.496094 "/>
</g>
<mask id="mask30">
  <g filter="url(#alpha)">
<rect x="0" y="0" width="702" height="450" style="fill:rgb(0%,0%,0%);fill-opacity:0.101961;stroke:none;"/>
  </g>
</mask>
<clipPath id="clip31">
  <rect x="0" y="0" width="702" height="450"/>
</clipPath>
<g id="surface95" clip-path="url(#clip31)">
<path style=" stroke:none;fill-rule:nonzero;fill:rgb(0%,0%,0%);fill-opacity:1;" d="M 677.039062 267.253906 C 664.132812 270.589844 662.46875 266.839844 661.628906 267.253906 C 660.792969 267.667969 664.582031 265.175781 660.382812 266.839844 C 656.183594 268.507812 649.980469 261.839844 649.980469 261.839844 C 650.039062 261.101562 650.070312 260.417969 650.070312 259.703125 C 650.121094 245.804688 639.566406 231.863281 639.566406 231.863281 C 620.390625 221.457031 627.074219 206.464844 627.074219 206.464844 L 626.300781 199.628906 L 624.273438 181.992188 C 623.292969 182.433594 622.277344 182.796875 621.238281 183.078125 L 623.347656 201.710938 L 624.136719 208.542969 C 624.136719 208.542969 617.5 223.539062 636.628906 233.941406 C 636.628906 233.941406 647.179688 247.890625 647.132812 261.78125 C 647.144531 262.496094 647.117188 263.210938 647.042969 263.921875 C 647.042969 263.921875 653.289062 270.558594 657.449219 268.921875 C 661.613281 267.28125 657.863281 269.753906 658.695312 269.335938 C 659.527344 268.914062 661.199219 272.667969 674.105469 269.335938 C 679.960938 267.820312 685.445312 265.132812 690.234375 261.4375 C 686.171875 264.066406 681.71875 266.03125 677.039062 267.253906 Z M 677.039062 267.253906 "/>
</g>
<mask id="mask31">
  <g filter="url(#alpha)">
<rect x="0" y="0" width="702" height="450" style="fill:rgb(0%,0%,0%);fill-opacity:0.101961;stroke:none;"/>
  </g>
</mask>
<clipPath id="clip32">
  <rect x="0" y="0" width="702" height="450"/>
</clipPath>
<g id="surface98" clip-path="url(#clip32)">
<path style=" stroke:none;fill-rule:nonzero;fill:rgb(0%,0%,0%);fill-opacity:1;" d="M 628.421875 179.558594 C 628.421875 179.558594 619.785156 178.773438 617.28125 189.597656 C 614.78125 200.425781 636.457031 207.085938 636.457031 207.085938 L 648.117188 190.859375 Z M 628.421875 179.558594 "/>
</g>
<mask id="mask32">
  <g filter="url(#alpha)">
<rect x="0" y="0" width="702" height="450" style="fill:rgb(0%,0%,0%);fill-opacity:0.101961;stroke:none;"/>
  </g>
</mask>
<clipPath id="clip33">
  <rect x="0" y="0" width="702" height="450"/>
</clipPath>
<g id="surface101" clip-path="url(#clip33)">
<path style=" stroke:none;fill-rule:nonzero;fill:rgb(0%,0%,0%);fill-opacity:1;" d="M 625.316406 181.484375 C 624.007812 182.144531 622.640625 182.671875 621.230469 183.066406 L 621.300781 183.691406 C 622.675781 183.027344 624.019531 182.289062 625.316406 181.484375 Z M 625.316406 181.484375 "/>
<path style=" stroke:none;fill-rule:nonzero;fill:rgb(0%,0%,0%);fill-opacity:1;" d="M 695.777344 254.347656 C 695.363281 251.398438 678.703125 232.695312 674.546875 209.800781 C 670.386719 186.902344 645.78125 170.648438 645.78125 170.648438 C 645.78125 170.648438 644.972656 171.097656 643.566406 171.703125 C 639.824219 173.308594 636.1875 175.144531 632.667969 177.195312 C 635.003906 175.964844 637.386719 174.832031 639.824219 173.789062 C 641.230469 173.1875 642.039062 172.738281 642.039062 172.738281 C 642.039062 172.738281 666.601562 188.964844 670.800781 211.886719 C 675 234.808594 691.621094 253.527344 692.03125 256.4375 C 692.296875 258.273438 688.753906 262.425781 682.855469 266.085938 C 690.949219 262.066406 696.097656 256.550781 695.777344 254.347656 Z M 695.777344 254.347656 "/>
</g>
<mask id="mask33">
  <g filter="url(#alpha)">
<rect x="0" y="0" width="702" height="450" style="fill:rgb(0%,0%,0%);fill-opacity:0.101961;stroke:none;"/>
  </g>
</mask>
<clipPath id="clip34">
  <rect x="0" y="0" width="702" height="450"/>
</clipPath>
<g id="surface104" clip-path="url(#clip34)">
<path style="fill:none;stroke-width:1;stroke-linecap:butt;stroke-linejoin:miter;stroke:rgb(0%,0%,0%);stroke-opacity:1;stroke-miterlimit:10;" d="M 983.159882 388.620104 C 984.543563 389.332778 985.57134 390.58625 986.00016 392.082778 " transform="matrix(4.5,0,0,4.5,-3790.4265,-1569.06)"/>
</g>
<mask id="mask34">
  <g filter="url(#alpha)">
<rect x="0" y="0" width="702" height="450" style="fill:rgb(0%,0%,0%);fill-opacity:0.101961;stroke:none;"/>
  </g>
</mask>
<clipPath id="clip35">
  <rect x="0" y="0" width="702" height="450"/>
</clipPath>
<g id="surface107" clip-path="url(#clip35)">
<path style=" stroke:none;fill-rule:nonzero;fill:rgb(0%,0%,0%);fill-opacity:1;" d="M 607.460938 152.96875 C 609.238281 153.121094 610.871094 154.011719 611.960938 155.429688 C 612.570312 156.550781 612.460938 157.960938 613.058594 159.117188 C 614.59375 162.003906 619.09375 161.011719 621.910156 162.714844 C 627.070312 165.828125 623.710938 175.53125 628.84375 178.660156 C 629.8125 179.25 630.953125 179.488281 631.949219 180.007812 C 636.289062 182.386719 635.679688 188.667969 634.902344 193.558594 C 634.121094 198.449219 635.050781 205.136719 639.953125 205.828125 C 642.652344 206.207031 645.683594 204.421875 647.953125 205.921875 C 649.144531 206.703125 649.679688 208.132812 650.65625 209.171875 C 652.050781 210.566406 654.144531 211 655.976562 210.273438 C 657.644531 209.578125 658.847656 207.996094 660.582031 207.484375 C 663.371094 206.667969 666.480469 208.925781 669.167969 207.886719 C 671.855469 206.847656 672.464844 202.96875 671.769531 200.039062 C 670.625 197.238281 670.164062 194.203125 670.417969 191.1875 C 671.457031 188.914062 672.617188 186.699219 673.894531 184.550781 C 676.445312 177.625 668.535156 170.46875 669.992188 163.238281 C 670.625 160.085938 672.984375 157.339844 672.945312 154.175781 C 672.421875 150.464844 669.785156 147.402344 666.195312 146.335938 C 662.796875 144.984375 659.0625 144.59375 655.734375 143.082031 C 648.441406 139.761719 644.449219 131.738281 637.785156 127.28125 C 634.796875 125.335938 631.429688 124.042969 627.90625 123.492188 C 618.710938 122.015625 609.324219 124.570312 602.140625 130.5 C 601.484375 131.03125 600.8125 131.53125 600.132812 132.019531 C 597.105469 133.828125 594.496094 136.261719 592.484375 139.15625 C 586.160156 150.183594 600.695312 151.441406 607.460938 152.96875 Z M 607.460938 152.96875 "/>
</g>
<mask id="mask35">
  <g filter="url(#alpha)">
<rect x="0" y="0" width="702" height="450" style="fill:rgb(0%,0%,0%);fill-opacity:0.101961;stroke:none;"/>
  </g>
</mask>
<clipPath id="clip36">
  <rect x="0" y="0" width="702" height="450"/>
</clipPath>
<g id="surface110" clip-path="url(#clip36)">
<path style=" stroke:none;fill-rule:nonzero;fill:rgb(0%,0%,0%);fill-opacity:1;" d="M 559.113281 263.652344 L 559.113281 267.109375 L 399.074219 267.109375 L 399.074219 266.371094 C 399.074219 266.371094 477.824219 189.691406 559.113281 263.652344 Z M 559.113281 263.652344 "/>
</g>
<linearGradient id="linear3" gradientUnits="userSpaceOnUse" x1="0.5" y1="1.001" x2="0.5" y2="-0.002" gradientTransform="matrix(14.824219,0,0,40.660156,408.617188,204.601562)">
<stop offset="0" style="stop-color:rgb(50.196078%,50.196078%,50.196078%);stop-opacity:0.25098;"/>
<stop offset="0.54" style="stop-color:rgb(50.196078%,50.196078%,50.196078%);stop-opacity:0.121569;"/>
<stop offset="1" style="stop-color:rgb(50.196078%,50.196078%,50.196078%);stop-opacity:0.101961;"/>
</linearGradient>
<mask id="mask36">
  <g filter="url(#alpha)">
<rect x="0" y="0" width="702" height="450" style="fill:rgb(0%,0%,0%);fill-opacity:0.101961;stroke:none;"/>
  </g>
</mask>
<clipPath id="clip37">
  <rect x="0" y="0" width="702" height="450"/>
</clipPath>
<g id="surface113" clip-path="url(#clip37)">
<path style=" stroke:none;fill-rule:nonzero;fill:rgb(0%,0%,0%);fill-opacity:1;" d="M 417.4375 225.257812 L 417.4375 225.128906 C 415.808594 225.710938 413.488281 233.980469 413.488281 233.980469 C 413.445312 236.117188 413.113281 238.238281 412.492188 240.28125 L 412.699219 240.355469 C 413.328125 238.285156 413.667969 236.136719 413.714844 233.972656 C 414.480469 230.886719 415.734375 227.941406 417.4375 225.257812 Z M 417.4375 225.257812 "/>
<path style=" stroke:none;fill-rule:nonzero;fill:rgb(0%,0%,0%);fill-opacity:1;" d="M 420.925781 221.238281 L 420.703125 221.238281 C 421.5 223.085938 421.628906 225.152344 421.074219 227.089844 L 420.210938 232.988281 C 420.324219 235.6875 419.941406 238.390625 419.082031 240.953125 L 419.296875 240.996094 C 420.160156 238.417969 420.546875 235.703125 420.441406 232.988281 L 421.304688 227.089844 C 421.863281 225.152344 421.730469 223.085938 420.925781 221.238281 Z M 420.925781 221.238281 "/>
</g>
<mask id="mask37">
  <g filter="url(#alpha)">
<rect x="0" y="0" width="702" height="450" style="fill:rgb(0%,0%,0%);fill-opacity:0.101961;stroke:none;"/>
  </g>
</mask>
<clipPath id="clip38">
  <rect x="0" y="0" width="702" height="450"/>
</clipPath>
<g id="surface116" clip-path="url(#clip38)">
<path style=" stroke:none;fill-rule:nonzero;fill:rgb(0%,0%,0%);fill-opacity:1;" d="M 412.628906 216.515625 C 412.625 216.632812 412.707031 216.738281 412.820312 216.761719 C 413.359375 216.894531 413.863281 217.148438 414.296875 217.5 C 415.105469 218.132812 413.433594 216.230469 413.433594 216.230469 L 412.871094 216.355469 L 412.640625 216.5625 Z M 412.628906 216.515625 "/>
</g>
<mask id="mask38">
  <g filter="url(#alpha)">
<rect x="0" y="0" width="702" height="450" style="fill:rgb(0%,0%,0%);fill-opacity:0.101961;stroke:none;"/>
  </g>
</mask>
<clipPath id="clip39">
  <rect x="0" y="0" width="702" height="450"/>
</clipPath>
<g id="surface119" clip-path="url(#clip39)">
<path style=" stroke:none;fill-rule:nonzero;fill:rgb(0%,0%,0%);fill-opacity:1;" d="M 423.121094 217.066406 C 422.640625 216.851562 422.09375 216.855469 421.613281 217.066406 C 421.136719 217.28125 420.769531 217.6875 420.605469 218.1875 C 420.605469 218.1875 422.027344 217.09375 423.019531 217.285156 "/>
</g>
<mask id="mask39">
  <g filter="url(#alpha)">
<rect x="0" y="0" width="702" height="450" style="fill:rgb(0%,0%,0%);fill-opacity:0.101961;stroke:none;"/>
  </g>
</mask>
<clipPath id="clip40">
  <rect x="0" y="0" width="702" height="450"/>
</clipPath>
<g id="surface122" clip-path="url(#clip40)">
<path style=" stroke:none;fill-rule:nonzero;fill:rgb(0%,0%,0%);fill-opacity:1;" d="M 413.074219 216.070312 C 413.125 216.871094 413.074219 217.675781 412.921875 218.460938 C 412.757812 219.257812 412.664062 220.0625 412.640625 220.875 C 412.714844 221.40625 412.871094 224.921875 412.871094 224.921875 C 412.871094 224.921875 412.589844 227.996094 414.085938 227.71875 C 415.578125 227.4375 413.855469 224.207031 413.855469 224.207031 L 413.929688 220.007812 C 414.335938 219.457031 414.589844 218.808594 414.664062 218.128906 C 414.773438 217.113281 413.074219 216.070312 413.074219 216.070312 Z M 413.074219 216.070312 "/>
</g>
<mask id="mask40">
  <g filter="url(#alpha)">
<rect x="0" y="0" width="702" height="450" style="fill:rgb(0%,0%,0%);fill-opacity:0.101961;stroke:none;"/>
  </g>
</mask>
<clipPath id="clip41">
  <rect x="0" y="0" width="702" height="450"/>
</clipPath>
<g id="surface125" clip-path="url(#clip41)">
<path style=" stroke:none;fill-rule:nonzero;fill:rgb(0%,0%,0%);fill-opacity:1;" d="M 422.625 216.300781 L 422.417969 219.582031 C 422.40625 221.523438 422.175781 223.460938 421.734375 225.351562 C 421.734375 225.351562 421.886719 228.582031 420.386719 228.5 C 418.882812 228.421875 420.636719 224.96875 420.636719 224.96875 C 421.027344 223.425781 421.160156 221.828125 421.027344 220.238281 L 420.636719 216.300781 Z M 422.625 216.300781 "/>
</g>
<mask id="mask41">
  <g filter="url(#alpha)">
<rect x="0" y="0" width="702" height="450" style="fill:rgb(0%,0%,0%);fill-opacity:0.101961;stroke:none;"/>
  </g>
</mask>
<clipPath id="clip42">
  <rect x="0" y="0" width="702" height="450"/>
</clipPath>
<g id="surface128" clip-path="url(#clip42)">
<path style=" stroke:none;fill-rule:nonzero;fill:rgb(0%,0%,0%);fill-opacity:1;" d="M 417.777344 213.125 C 417.777344 213.125 418.992188 213.6875 419.65625 212.015625 L 422.128906 213.226562 C 422.433594 213.519531 422.609375 213.925781 422.609375 214.347656 L 423.140625 217.195312 C 422.683594 217.015625 422.175781 217.027344 421.726562 217.226562 C 421.28125 217.429688 420.9375 217.804688 420.773438 218.269531 L 420.925781 219.871094 C 421.042969 220.265625 421.011719 220.6875 420.84375 221.0625 C 420.8125 221.132812 420.8125 221.210938 420.84375 221.277344 C 420.917969 221.515625 420.875 221.773438 420.730469 221.972656 C 420.585938 222.171875 420.355469 222.292969 420.105469 222.296875 C 419.441406 222.300781 418.78125 222.355469 418.121094 222.449219 C 417.589844 222.601562 415.984375 222.148438 415.453125 222.449219 C 414.921875 222.75 413.800781 222.21875 413.800781 222.21875 L 414.101562 220.921875 C 414.101562 220.921875 413.898438 220.289062 414.152344 220.058594 C 414.347656 219.140625 414.304688 218.183594 414.027344 217.285156 C 414.027344 217.285156 413.128906 216.421875 412.550781 216.550781 L 413.289062 213.269531 C 413.613281 212.644531 414.238281 212.238281 414.941406 212.199219 C 415.511719 212.25 416.082031 212.089844 416.542969 211.746094 C 416.542969 211.746094 415.992188 212.949219 417.777344 213.125 Z M 417.777344 213.125 "/>
</g>
<mask id="mask42">
  <g filter="url(#alpha)">
<rect x="0" y="0" width="702" height="450" style="fill:rgb(0%,0%,0%);fill-opacity:0.101961;stroke:none;"/>
  </g>
</mask>
<clipPath id="clip43">
  <rect x="0" y="0" width="702" height="450"/>
</clipPath>
<g id="surface131" clip-path="url(#clip43)">
<path style=" stroke:none;fill-rule:nonzero;fill:rgb(0%,0%,0%);fill-opacity:1;" d="M 417.902344 213.066406 C 418.234375 213.15625 419.117188 213.25 419.648438 211.914062 L 422.117188 213.125 C 422.425781 213.417969 422.601562 213.820312 422.597656 214.246094 L 423.128906 217.09375 C 422.675781 216.910156 422.164062 216.921875 421.71875 217.125 C 421.273438 217.328125 420.925781 217.703125 420.761719 218.164062 L 420.917969 219.765625 L 421.019531 220.082031 C 421.109375 220.355469 421.0625 220.65625 420.894531 220.890625 C 420.824219 220.972656 420.804688 221.089844 420.84375 221.1875 C 420.917969 221.425781 420.875 221.683594 420.730469 221.882812 C 420.585938 222.082031 420.355469 222.203125 420.105469 222.207031 C 419.441406 222.210938 418.78125 222.261719 418.121094 222.359375 C 417.589844 222.511719 415.984375 222.058594 415.453125 222.359375 C 414.921875 222.660156 413.800781 222.128906 413.800781 222.128906 L 414.101562 220.832031 C 414.101562 220.832031 413.898438 220.199219 414.152344 219.96875 C 414.347656 219.050781 414.304688 218.09375 414.027344 217.195312 C 414.027344 217.195312 413.128906 216.332031 412.550781 216.460938 L 413.289062 213.179688 C 413.613281 212.554688 414.238281 212.148438 414.941406 212.109375 C 415.511719 212.160156 416.082031 212 416.542969 211.65625 C 416.542969 211.65625 415.945312 212.75 417.515625 212.984375 Z M 417.902344 213.066406 "/>
</g>
<mask id="mask43">
  <g filter="url(#alpha)">
<rect x="0" y="0" width="702" height="450" style="fill:rgb(0%,0%,0%);fill-opacity:0.101961;stroke:none;"/>
  </g>
</mask>
<clipPath id="clip44">
  <rect x="0" y="0" width="702" height="450"/>
</clipPath>
<g id="surface134" clip-path="url(#clip44)">
<path style=" stroke:none;fill-rule:nonzero;fill:rgb(0%,0%,0%);fill-opacity:1;" d="M 418.835938 208.726562 L 416.675781 210.078125 C 416.734375 210.320312 416.773438 210.566406 416.804688 210.816406 C 417.050781 210.914062 417.3125 210.964844 417.578125 210.964844 C 418.105469 210.925781 418.601562 210.703125 418.976562 210.328125 C 418.878906 209.800781 418.832031 209.265625 418.835938 208.726562 Z M 418.835938 208.726562 "/>
</g>
<mask id="mask44">
  <g filter="url(#alpha)">
<rect x="0" y="0" width="702" height="450" style="fill:rgb(0%,0%,0%);fill-opacity:0.101961;stroke:none;"/>
  </g>
</mask>
<clipPath id="clip45">
  <rect x="0" y="0" width="702" height="450"/>
</clipPath>
<g id="surface137" clip-path="url(#clip45)">
<path style=" stroke:none;fill-rule:nonzero;fill:rgb(0%,0%,0%);fill-opacity:1;" d="M 420.429688 214.8125 C 420.523438 215.257812 420.523438 215.71875 420.429688 216.160156 C 420.429688 216.160156 420.304688 217.359375 420.503906 217.5625 "/>
</g>
<mask id="mask45">
  <g filter="url(#alpha)">
<rect x="0" y="0" width="702" height="450" style="fill:rgb(0%,0%,0%);fill-opacity:0.101961;stroke:none;"/>
  </g>
</mask>
<clipPath id="clip46">
  <rect x="0" y="0" width="702" height="450"/>
</clipPath>
<g id="surface140" clip-path="url(#clip46)">
<path style=" stroke:none;fill-rule:nonzero;fill:rgb(0%,0%,0%);fill-opacity:1;" d="M 414.253906 215.089844 C 414.34375 215.535156 414.34375 215.996094 414.253906 216.441406 C 414.253906 216.441406 414.125 217.636719 414.324219 217.839844 "/>
</g>
<mask id="mask46">
  <g filter="url(#alpha)">
<rect x="0" y="0" width="702" height="450" style="fill:rgb(0%,0%,0%);fill-opacity:0.101961;stroke:none;"/>
  </g>
</mask>
<clipPath id="clip47">
  <rect x="0" y="0" width="702" height="450"/>
</clipPath>
<g id="surface143" clip-path="url(#clip47)">
<path style=" stroke:none;fill-rule:nonzero;fill:rgb(0%,0%,0%);fill-opacity:1;" d="M 414.199219 219.996094 C 414.394531 220.066406 414.613281 220.066406 414.808594 219.996094 C 415.050781 219.921875 415.308594 219.921875 415.546875 219.996094 "/>
</g>
<mask id="mask47">
  <g filter="url(#alpha)">
<rect x="0" y="0" width="702" height="450" style="fill:rgb(0%,0%,0%);fill-opacity:0.101961;stroke:none;"/>
  </g>
</mask>
<clipPath id="clip48">
  <rect x="0" y="0" width="702" height="450"/>
</clipPath>
<g id="surface146" clip-path="url(#clip48)">
<path style=" stroke:none;fill-rule:nonzero;fill:rgb(0%,0%,0%);fill-opacity:1;" d="M 414.507812 218.183594 C 415.226562 218.214844 415.945312 218.101562 416.617188 217.847656 C 416.617188 217.847656 419.214844 218.484375 419.953125 218.023438 "/>
</g>
<mask id="mask48">
  <g filter="url(#alpha)">
<rect x="0" y="0" width="702" height="450" style="fill:rgb(0%,0%,0%);fill-opacity:0.101961;stroke:none;"/>
  </g>
</mask>
<clipPath id="clip49">
  <rect x="0" y="0" width="702" height="450"/>
</clipPath>
<g id="surface149" clip-path="url(#clip49)">
<path style=" stroke:none;fill-rule:nonzero;fill:rgb(0%,0%,0%);fill-opacity:1;" d="M 417.886719 207.378906 C 417.808594 208.15625 417.910156 208.945312 418.183594 209.675781 C 418.460938 210.398438 418.421875 211.203125 418.074219 211.890625 C 418.300781 211.945312 418.542969 211.882812 418.71875 211.730469 C 418.894531 211.566406 419.046875 211.382812 419.171875 211.175781 C 419.308594 211.007812 419.40625 210.8125 419.457031 210.601562 C 419.480469 210.269531 419.429688 209.9375 419.308594 209.628906 C 419.167969 209.0625 419.0625 208.488281 419 207.910156 C 418.953125 207.554688 419 206.558594 418.597656 206.433594 C 418.199219 206.308594 417.984375 207.082031 417.886719 207.378906 Z M 417.886719 207.378906 "/>
</g>
<mask id="mask49">
  <g filter="url(#alpha)">
<rect x="0" y="0" width="702" height="450" style="fill:rgb(0%,0%,0%);fill-opacity:0.101961;stroke:none;"/>
  </g>
</mask>
<clipPath id="clip50">
  <rect x="0" y="0" width="702" height="450"/>
</clipPath>
<g id="surface152" clip-path="url(#clip50)">
<path style=" stroke:none;fill-rule:nonzero;fill:rgb(0%,0%,0%);fill-opacity:1;" d="M 417.039062 207.90625 C 417.214844 208.089844 417.253906 208.355469 417.398438 208.566406 C 417.664062 208.851562 418.039062 209.003906 418.429688 208.980469 C 418.53125 208.976562 418.636719 209 418.730469 209.046875 C 418.890625 209.152344 418.902344 209.386719 419.003906 209.546875 C 419.117188 209.667969 419.273438 209.734375 419.4375 209.734375 C 419.601562 209.734375 419.757812 209.667969 419.867188 209.546875 C 420.078125 209.292969 420.199219 208.976562 420.199219 208.648438 C 420.238281 208.28125 420.238281 207.914062 420.199219 207.550781 C 420.195312 207.132812 420.035156 206.734375 419.75 206.429688 C 419.507812 206.25 419.230469 206.128906 418.933594 206.074219 C 418.527344 205.929688 418.09375 205.898438 417.671875 205.976562 C 417.46875 206.046875 417.273438 206.144531 417.097656 206.265625 C 416.84375 206.429688 416.597656 206.59375 416.359375 206.761719 C 416.082031 206.953125 415.570312 207.335938 416.070312 207.542969 C 416.375 207.683594 416.773438 207.617188 417.039062 207.90625 Z M 417.039062 207.90625 "/>
</g>
</defs>
<g id="surface1">
<use xlink:href="#surface5" mask="url(#mask0)"/>
<path style=" stroke:none;fill-rule:nonzero;fill:rgb(42.352941%,38.823529%,100%);fill-opacity:1;" d="M 656.136719 384.964844 C 654.171875 380.003906 651.324219 375.441406 647.730469 371.496094 C 640.320312 360.484375 639.472656 346.316406 645.515625 334.5 C 648.46875 328.945312 653.007812 323.207031 651.367188 317.152344 C 649.808594 313.175781 646.804688 309.941406 642.960938 308.09375 C 629.21875 299.816406 613.355469 295.734375 597.324219 296.351562 C 577.679688 297.148438 558.097656 305 538.824219 301.109375 C 520.046875 297.320312 504.175781 287.890625 484.492188 286.78125 C 469.824219 285.953125 455.289062 286.882812 440.625 285.304688 C 404.3125 281.367188 367.734375 280.492188 331.277344 282.695312 C 294.816406 280.492188 258.238281 281.367188 221.925781 285.304688 C 207.265625 286.910156 192.730469 285.976562 178.058594 286.78125 C 158.398438 287.886719 142.511719 297.308594 123.726562 301.109375 C 104.457031 305 84.871094 297.148438 65.226562 296.351562 C 49.195312 295.734375 33.332031 299.8125 19.589844 308.09375 C 15.75 309.949219 12.746094 313.183594 11.183594 317.152344 C 9.53125 323.207031 14.132812 328.949219 17.03125 334.5 C 23.078125 346.316406 22.230469 360.484375 14.820312 371.496094 C 11.21875 375.4375 8.367188 380 6.414062 384.964844 C 3.824219 395.378906 13.949219 404.554688 23.839844 408.652344 C 50.871094 419.945312 83.730469 414.480469 108.441406 430.21875 C 119.503906 437.273438 129.21875 448.617188 142.367188 449.035156 C 151.21875 449.324219 159.328125 444.394531 167.070312 440.035156 C 178.675781 433.539062 190.804688 428.03125 203.332031 423.566406 C 214.113281 419.109375 225.765625 417.148438 237.410156 417.839844 C 255.109375 419.8125 331.292969 456.609375 365.621094 434.851562 C 389.15625 419.941406 407.503906 419.8125 425.171875 417.839844 C 436.820312 417.148438 448.472656 419.109375 459.253906 423.566406 C 471.78125 428.03125 483.910156 433.539062 495.511719 440.035156 C 503.261719 444.375 511.339844 449.308594 520.21875 449.035156 C 533.34375 448.617188 543.042969 437.28125 554.144531 430.21875 C 578.847656 414.46875 611.710938 419.945312 638.742188 408.652344 C 648.539062 404.535156 658.667969 395.359375 656.136719 384.964844 Z M 656.136719 384.964844 "/>
<use xlink:href="#surface8" mask="url(#mask1)"/>
<use xlink:href="#surface11" mask="url(#mask2)"/>
<use xlink:href="#surface14" mask="url(#mask3)"/>
<use xlink:href="#surface17" mask="url(#mask4)"/>
<use xlink:href="#surface20" mask="url(#mask5)"/>
<use xlink:href="#surface23" mask="url(#mask6)"/>
<use xlink:href="#surface26" mask="url(#mask7)"/>
<use xlink:href="#surface29" mask="url(#mask8)"/>
<use xlink:href="#surface32" mask="url(#mask9)"/>
<use xlink:href="#surface35" mask="url(#mask10)"/>
<use xlink:href="#surface38" mask="url(#mask11)"/>
<use xlink:href="#surface41" mask="url(#mask12)"/>
<path style=" stroke:none;fill-rule:nonzero;fill:url(#linear1);" d="M 55.449219 0 L 55.449219 365.210938 L 591.5625 365.210938 L 591.5625 0 Z M 55.449219 0 "/>
<path style=" stroke:none;fill-rule:nonzero;fill:rgb(100%,100%,100%);fill-opacity:1;" d="M 63.402344 16.574219 L 585.886719 16.574219 L 585.886719 358.605469 L 63.402344 358.605469 Z M 63.402344 16.574219 "/>
<path style=" stroke:none;fill-rule:nonzero;fill:rgb(93.333333%,93.333333%,93.333333%);fill-opacity:1;" d="M 63.402344 0.300781 L 585.886719 0.300781 L 585.886719 25.464844 L 63.402344 25.464844 Z M 63.402344 0.300781 "/>
<path style=" stroke:none;fill-rule:nonzero;fill:rgb(100%,32.156863%,32.156863%);fill-opacity:1;" d="M 89.378906 12.5 C 89.378906 15.867188 86.648438 18.597656 83.28125 18.597656 C 79.914062 18.597656 77.183594 15.867188 77.183594 12.5 C 77.183594 9.132812 79.914062 6.402344 83.28125 6.402344 C 86.648438 6.402344 89.378906 9.132812 89.378906 12.5 Z M 89.378906 12.5 "/>
<path style=" stroke:none;fill-rule:nonzero;fill:rgb(100%,100%,0%);fill-opacity:1;" d="M 106.15625 12.5 C 106.15625 15.867188 103.425781 18.597656 100.058594 18.597656 C 96.691406 18.597656 93.960938 15.867188 93.960938 12.5 C 93.960938 9.132812 96.691406 6.402344 100.058594 6.402344 C 103.425781 6.402344 106.15625 9.132812 106.15625 12.5 Z M 106.15625 12.5 "/>
<path style=" stroke:none;fill-rule:nonzero;fill:rgb(41.176471%,94.117647%,68.235294%);fill-opacity:1;" d="M 122.933594 12.5 C 122.933594 15.867188 120.207031 18.597656 116.839844 18.597656 C 113.46875 18.597656 110.742188 15.867188 110.742188 12.5 C 110.742188 9.132812 113.46875 6.402344 116.839844 6.402344 C 120.207031 6.402344 122.933594 9.132812 122.933594 12.5 Z M 122.933594 12.5 "/>
<use xlink:href="#surface44" mask="url(#mask13)"/>
<use xlink:href="#surface47" mask="url(#mask14)"/>
<use xlink:href="#surface50" mask="url(#mask15)"/>
<use xlink:href="#surface53" mask="url(#mask16)"/>
<use xlink:href="#surface56" mask="url(#mask17)"/>
<use xlink:href="#surface59" mask="url(#mask18)"/>
<use xlink:href="#surface62" mask="url(#mask19)"/>
<path style=" stroke:none;fill-rule:nonzero;fill:rgb(93.333333%,93.333333%,93.333333%);fill-opacity:1;" d="M 331.222656 135.09375 L 560.585938 135.09375 L 560.585938 267.105469 L 331.222656 267.105469 Z M 331.222656 135.09375 "/>
<use xlink:href="#surface65" mask="url(#mask20)"/>
<path style=" stroke:none;fill-rule:nonzero;fill:rgb(99.215686%,71.764706%,59.215686%);fill-opacity:1;" d="M 643.519531 191.171875 C 637.5 193.394531 631.984375 196.792969 627.289062 201.167969 C 627.289062 201.167969 598.976562 212.417969 591.066406 211.164062 C 583.15625 209.90625 582.742188 207.828125 581.070312 204.523438 L 563.164062 172.074219 C 563.164062 172.074219 555.671875 145.007812 563.164062 147.925781 C 570.660156 150.839844 572.753906 167.097656 572.753906 167.097656 C 572.753906 167.097656 586.917969 195.414062 595.65625 195 L 619.367188 183.699219 C 619.367188 183.699219 624.765625 175.785156 627.28125 176.207031 C 629.796875 176.628906 643.519531 191.171875 643.519531 191.171875 Z M 643.519531 191.171875 "/>
<use xlink:href="#surface68" mask="url(#mask21)"/>
<path style=" stroke:none;fill-rule:nonzero;fill:rgb(97.647059%,80.784314%,26.27451%);fill-opacity:1;" d="M 626.421875 175.824219 L 618.121094 182.34375 C 618.121094 182.34375 622.273438 193.207031 621.234375 197.015625 C 620.195312 200.820312 637.84375 191.042969 637.84375 191.042969 L 630.582031 174.742188 Z M 626.421875 175.824219 "/>
<use xlink:href="#surface71" mask="url(#mask22)"/>
<path style=" stroke:none;fill-rule:nonzero;fill:rgb(99.215686%,71.764706%,59.215686%);fill-opacity:1;" d="M 612.085938 168.570312 C 612.085938 168.570312 630.613281 174.609375 622.078125 185.21875 L 648.722656 172.3125 C 648.722656 172.3125 637.472656 173.148438 630.40625 156.085938 Z M 612.085938 168.570312 "/>
<path style=" stroke:none;fill-rule:nonzero;fill:rgb(99.215686%,71.764706%,59.215686%);fill-opacity:1;" d="M 647.058594 277.25 L 624.160156 318.46875 L 639.570312 378.402344 C 639.570312 378.402344 641.238281 391.726562 638.738281 392.972656 L 656.226562 392.972656 C 654.636719 387.847656 653.796875 382.519531 653.722656 377.152344 C 654.761719 372.367188 657.472656 344.703125 650.773438 336.765625 C 644.070312 328.828125 654.105469 318.445312 654.105469 318.445312 L 674.089844 286.804688 Z M 647.058594 277.25 "/>
<use xlink:href="#surface74" mask="url(#mask23)"/>
<path style=" stroke:none;fill-rule:nonzero;fill:rgb(5.098039%,7.45098%,30.196078%);fill-opacity:1;" d="M 640.015625 385.125 C 635.699219 391 629.589844 395.320312 622.609375 397.429688 C 611.550781 400.398438 612.449219 406.179688 615.835938 406.738281 C 619.21875 407.296875 659.34375 402.441406 659.34375 402.441406 C 659.34375 402.441406 661.785156 396.402344 658.238281 393.757812 C 655.988281 391.660156 654.699219 388.734375 654.667969 385.660156 Z M 640.015625 385.125 "/>
<use xlink:href="#surface77" mask="url(#mask24)"/>
<path style=" stroke:none;fill-rule:nonzero;fill:rgb(88.627451%,20.784314%,32.54902%);fill-opacity:1;" d="M 648.308594 260.175781 C 648.308594 260.175781 649.300781 273.71875 645.691406 277.277344 C 645.4375 277.515625 645.3125 277.863281 645.355469 278.210938 C 645.398438 278.558594 645.605469 278.863281 645.910156 279.03125 L 656.636719 284.746094 L 666.226562 266.425781 Z M 648.308594 260.175781 "/>
<use xlink:href="#surface80" mask="url(#mask25)"/>
<path style=" stroke:none;fill-rule:nonzero;fill:rgb(99.215686%,71.764706%,59.215686%);fill-opacity:1;" d="M 648.722656 286.820312 C 648.722656 286.820312 642.535156 290.953125 629.550781 307.972656 C 626.832031 311.527344 623.808594 314.839844 620.515625 317.871094 C 618.511719 319.5625 616.671875 321.441406 615.019531 323.476562 C 613.375 326.511719 612.707031 329.980469 613.117188 333.40625 C 614.1875 338.066406 614.625 342.847656 614.421875 347.625 L 612.527344 381.78125 C 612.527344 381.78125 610.023438 397.1875 606.699219 398.851562 L 623.773438 401.804688 C 623.773438 401.804688 622.527344 390.976562 627.519531 385.578125 C 634.558594 372.585938 637.601562 357.800781 636.269531 343.085938 C 635.960938 336.339844 639.976562 330.144531 646.261719 327.675781 C 657.511719 322.277344 680.410156 296.03125 680.410156 296.03125 Z M 648.722656 286.820312 "/>
<path style=" stroke:none;fill-rule:nonzero;fill:rgb(5.098039%,7.45098%,30.196078%);fill-opacity:1;" d="M 609.582031 393.003906 C 604.796875 398.484375 598.375 402.28125 591.265625 403.828125 C 580.015625 405.910156 580.4375 411.742188 583.773438 412.578125 C 587.105469 413.414062 627.488281 411.746094 627.488281 411.746094 C 627.488281 411.746094 630.441406 405.917969 627.074219 402.996094 C 625.015625 400.75 624.097656 397.683594 624.574219 394.671875 Z M 609.582031 393.003906 "/>
<use xlink:href="#surface83" mask="url(#mask26)"/>
<path style=" stroke:none;fill-rule:nonzero;fill:rgb(88.627451%,20.784314%,32.54902%);fill-opacity:1;" d="M 659.136719 264.34375 C 659.136719 264.34375 654.058594 281.40625 647.617188 286.394531 C 647.375 286.578125 647.25 286.878906 647.296875 287.179688 C 647.339844 287.476562 647.546875 287.730469 647.832031 287.832031 C 653.15625 289.773438 670.265625 296.308594 676.210938 302.234375 L 676.417969 302.441406 C 676.417969 302.441406 712.015625 284.328125 692.863281 253.515625 Z M 659.136719 264.34375 "/>
<use xlink:href="#surface86" mask="url(#mask27)"/>
<use xlink:href="#surface89" mask="url(#mask28)"/>
<path style=" stroke:none;fill-rule:nonzero;fill:rgb(97.647059%,80.784314%,26.27451%);fill-opacity:1;" d="M 674.128906 269.335938 C 661.222656 272.667969 659.554688 268.921875 658.71875 269.335938 C 657.882812 269.746094 661.671875 267.253906 657.472656 268.921875 C 653.273438 270.585938 647.070312 263.921875 647.070312 263.921875 C 647.128906 263.183594 647.160156 262.5 647.160156 261.78125 C 647.203125 247.859375 636.628906 233.941406 636.628906 233.941406 C 617.453125 223.539062 624.136719 208.542969 624.136719 208.542969 L 623.351562 201.710938 L 621.207031 183.082031 C 624.242188 182.136719 627.125 180.75 629.757812 178.96875 C 634.15625 176.1875 638.769531 173.757812 643.554688 171.710938 C 644.960938 171.109375 645.769531 170.65625 645.769531 170.65625 C 645.769531 170.65625 670.332031 186.886719 674.53125 209.808594 C 678.730469 232.730469 695.351562 251.445312 695.761719 254.359375 C 696.171875 257.269531 687.03125 266.003906 674.128906 269.335938 Z M 674.128906 269.335938 "/>
<use xlink:href="#surface92" mask="url(#mask29)"/>
<path style=" stroke:none;fill-rule:nonzero;fill:rgb(99.215686%,71.764706%,59.215686%);fill-opacity:1;" d="M 634.984375 154.003906 C 634.984375 164.121094 626.785156 172.324219 616.667969 172.324219 C 606.550781 172.324219 598.347656 164.121094 598.347656 154.003906 C 598.347656 143.886719 606.550781 135.683594 616.667969 135.683594 C 626.785156 135.683594 634.984375 143.886719 634.984375 154.003906 Z M 634.984375 154.003906 "/>
<use xlink:href="#surface95" mask="url(#mask30)"/>
<path style=" stroke:none;fill-rule:nonzero;fill:rgb(99.215686%,71.764706%,59.215686%);fill-opacity:1;" d="M 642.476562 194.800781 C 636.460938 197.023438 630.941406 200.417969 626.25 204.796875 C 626.25 204.796875 597.9375 216.046875 590.027344 214.789062 C 582.117188 213.535156 581.703125 211.453125 580.03125 208.152344 L 562.125 175.703125 C 562.125 175.703125 554.632812 148.636719 562.125 151.550781 C 569.617188 154.46875 571.714844 170.726562 571.714844 170.726562 C 571.714844 170.726562 585.878906 199.039062 594.617188 198.625 L 618.335938 187.3125 C 618.335938 187.3125 623.734375 179.398438 626.246094 179.820312 C 628.757812 180.242188 642.476562 194.800781 642.476562 194.800781 Z M 642.476562 194.800781 "/>
<use xlink:href="#surface98" mask="url(#mask31)"/>
<path style=" stroke:none;fill-rule:nonzero;fill:rgb(97.647059%,80.784314%,26.27451%);fill-opacity:1;" d="M 628.855469 179.5625 C 628.855469 179.5625 620.222656 178.777344 617.71875 189.601562 C 615.21875 200.429688 636.894531 207.089844 636.894531 207.089844 L 648.554688 190.863281 Z M 628.855469 179.5625 "/>
<use xlink:href="#surface101" mask="url(#mask32)"/>
<use xlink:href="#surface104" mask="url(#mask33)"/>
<use xlink:href="#surface107" mask="url(#mask34)"/>
<path style=" stroke:none;fill-rule:nonzero;fill:rgb(42.352941%,38.823529%,100%);fill-opacity:1;" d="M 607.976562 151.933594 C 609.757812 152.085938 611.390625 152.976562 612.476562 154.394531 C 613.089844 155.515625 612.976562 156.925781 613.574219 158.082031 C 615.109375 160.96875 619.609375 159.976562 622.425781 161.679688 C 627.589844 164.792969 624.226562 174.496094 629.359375 177.625 C 630.328125 178.214844 631.472656 178.453125 632.464844 178.972656 C 636.808594 181.351562 636.195312 187.632812 635.417969 192.523438 C 634.640625 197.414062 635.566406 204.101562 640.472656 204.796875 C 643.171875 205.171875 646.199219 203.386719 648.472656 204.886719 C 649.660156 205.667969 650.195312 207.097656 651.171875 208.136719 C 652.570312 209.53125 654.660156 209.964844 656.496094 209.238281 C 658.160156 208.542969 659.367188 206.960938 661.097656 206.449219 C 663.890625 205.632812 667 207.890625 669.683594 206.851562 C 672.371094 205.8125 672.984375 201.933594 672.289062 199.003906 C 671.148438 196.203125 670.683594 193.167969 670.941406 190.152344 C 671.980469 187.878906 673.136719 185.664062 674.414062 183.515625 C 676.964844 176.589844 669.054688 169.433594 670.511719 162.203125 C 671.148438 159.050781 673.507812 156.304688 673.464844 153.140625 C 672.945312 149.429688 670.304688 146.367188 666.714844 145.300781 C 663.3125 143.949219 659.582031 143.558594 656.257812 142.046875 C 648.964844 138.726562 644.972656 130.703125 638.308594 126.246094 C 635.597656 124.472656 632.566406 123.25 629.382812 122.648438 C 619.894531 120.828125 610.089844 123.335938 602.640625 129.492188 C 602 130.011719 601.335938 130.503906 600.65625 130.96875 C 597.625 132.773438 595.019531 135.207031 593.003906 138.105469 C 586.679688 149.144531 601.222656 150.414062 607.976562 151.933594 Z M 607.976562 151.933594 "/>
<path style=" stroke:none;fill-rule:nonzero;fill:rgb(42.352941%,38.823529%,100%);fill-opacity:1;" d="M 459.550781 267.121094 L 331.222656 267.121094 L 331.222656 242.9375 C 362.574219 228.273438 410.8125 220.039062 459.550781 267.121094 Z M 459.550781 267.121094 "/>
<use xlink:href="#surface110" mask="url(#mask35)"/>
<path style=" stroke:none;fill-rule:nonzero;fill:rgb(42.352941%,38.823529%,100%);fill-opacity:1;" d="M 560.585938 263.652344 L 560.585938 267.109375 L 400.550781 267.109375 L 400.550781 266.371094 C 400.550781 266.371094 479.300781 189.691406 560.585938 263.652344 Z M 560.585938 263.652344 "/>
<path style=" stroke:none;fill-rule:nonzero;fill:rgb(42.352941%,38.823529%,100%);fill-opacity:1;" d="M 369.570312 158.695312 C 369.570312 165.214844 364.289062 170.496094 357.773438 170.496094 C 351.257812 170.496094 345.972656 165.214844 345.972656 158.695312 C 345.972656 152.179688 351.257812 146.898438 357.773438 146.898438 C 364.289062 146.898438 369.570312 152.179688 369.570312 158.695312 Z M 369.570312 158.695312 "/>
<path style=" stroke:none;fill-rule:nonzero;fill:rgb(95.686275%,95.686275%,95.686275%);fill-opacity:1;" d="M 458.238281 149.773438 C 456.890625 149.773438 455.386719 149.773438 454.359375 149.855469 C 453.898438 149.878906 453.445312 149.972656 453.011719 150.128906 L 446.070312 152.621094 C 451.679688 152.761719 457.523438 152.714844 463.269531 152.671875 L 495.484375 152.417969 C 498.777344 152.417969 502.234375 152.359375 504.964844 152.167969 C 506.800781 152.03125 508.148438 151.84375 509.84375 151.71875 C 515.941406 151.171875 524.832031 151.265625 532.796875 151.304688 C 539.585938 151.535156 546.382812 151.210938 553.121094 150.332031 L 536.070312 150.332031 C 534.234375 150.332031 532.304688 150.332031 530.671875 150.242188 C 528.777344 150.128906 527.617188 149.925781 525.949219 149.792969 C 523.191406 149.558594 519.386719 149.527344 515.847656 149.511719 C 496.402344 149.394531 477.210938 149.855469 458.238281 149.773438 Z M 458.238281 149.773438 "/>
<path style=" stroke:none;fill-rule:nonzero;fill:rgb(95.686275%,95.686275%,95.686275%);fill-opacity:1;" d="M 477.320312 164.082031 L 476.476562 164.082031 C 476.375 164.089844 476.277344 164.109375 476.179688 164.140625 L 474.703125 164.683594 L 478.429688 164.683594 L 485.40625 164.632812 C 486.144531 164.632812 486.882812 164.632812 487.457031 164.582031 C 487.859375 164.582031 488.152344 164.511719 488.511719 164.480469 C 489.828125 164.363281 491.753906 164.386719 493.460938 164.390625 C 494.9375 164.4375 496.417969 164.367188 497.882812 164.171875 L 493.035156 164.171875 C 492.691406 164.15625 492.347656 164.121094 492.007812 164.070312 C 491.269531 164.023438 490.53125 164.003906 489.792969 164.011719 C 485.617188 163.992188 481.460938 164.082031 477.320312 164.082031 Z M 477.320312 164.082031 "/>
<path style=" stroke:none;fill-rule:nonzero;fill:rgb(95.686275%,95.686275%,95.686275%);fill-opacity:1;" d="M 427.910156 184.730469 L 427.066406 184.730469 C 426.964844 184.734375 426.867188 184.753906 426.769531 184.789062 L 425.296875 185.328125 L 429.019531 185.328125 L 435.996094 185.277344 C 436.734375 185.277344 437.472656 185.277344 438.046875 185.230469 C 438.449219 185.230469 438.742188 185.15625 439.101562 185.125 C 440.417969 185.007812 442.34375 185.03125 444.050781 185.035156 C 445.527344 185.085938 447.007812 185.011719 448.472656 184.820312 L 443.625 184.820312 C 443.28125 184.800781 442.9375 184.769531 442.597656 184.714844 C 441.859375 184.667969 441.121094 184.648438 440.382812 184.65625 C 436.207031 184.640625 432.050781 184.730469 427.910156 184.730469 Z M 427.910156 184.730469 "/>
<path style=" stroke:none;fill-rule:nonzero;fill:rgb(42.352941%,38.823529%,100%);fill-opacity:1;" d="M 400.183594 260.566406 L 394.640625 260.566406 C 394.640625 260.566406 392.910156 199.917969 400.183594 181.195312 L 401.570312 181.195312 C 401.570312 181.195312 396.71875 249.820312 400.183594 260.566406 Z M 400.183594 260.566406 "/>
<path style=" stroke:none;fill-rule:nonzero;fill:rgb(42.352941%,38.823529%,100%);fill-opacity:1;" d="M 396.375 178.078125 C 396.375 178.078125 391.875 190.558594 393.949219 196.101562 C 393.949219 196.101562 397.066406 184.660156 400.699219 182.929688 C 404.328125 181.195312 408.144531 196.101562 408.144531 196.101562 C 409.289062 190.402344 408.683594 184.492188 406.414062 179.140625 C 411.292969 182.035156 415.257812 186.246094 417.851562 191.289062 C 417.851562 191.289062 418.546875 186.128906 409.53125 175.347656 C 414.367188 176.691406 418.859375 179.058594 422.703125 182.28125 C 422.703125 182.28125 424.433594 178.46875 413.703125 172.226562 C 413.703125 172.226562 415.089844 167.726562 423.410156 169.804688 C 423.410156 169.804688 423.410156 163.902344 410.238281 164.953125 C 410.238281 164.953125 410.238281 161.140625 418.90625 161.832031 C 418.90625 161.832031 418.90625 156.984375 408.851562 158.714844 C 409.78125 157.257812 410.953125 155.96875 412.316406 154.902344 C 410.582031 154.742188 408.851562 155.238281 407.464844 156.289062 C 407.632812 152.710938 405.753906 149.351562 402.613281 147.621094 L 401.921875 156.289062 C 401.921875 156.289062 396.09375 149.421875 397.421875 150.746094 C 398.25 152.835938 398.605469 155.085938 398.460938 157.332031 C 394.5 154.445312 389.09375 154.589844 385.289062 157.679688 C 385.289062 157.679688 394.289062 158.371094 395.691406 161.492188 C 392.617188 160.816406 389.445312 160.699219 386.328125 161.144531 C 386.328125 161.144531 392.230469 163.222656 391.875 164.609375 C 391.875 164.609375 381.472656 164.609375 380.074219 168.421875 C 383.964844 168.800781 387.804688 169.613281 391.511719 170.847656 C 391.511719 170.847656 379.035156 179.847656 378.34375 182.285156 C 383.082031 179.324219 388.070312 176.773438 393.246094 174.660156 C 395.324219 174.660156 383.886719 185.71875 384.578125 188.523438 C 384.597656 188.472656 393.984375 177.382812 396.375 178.078125 Z M 396.375 178.078125 "/>
<path style=" stroke:none;fill-rule:nonzero;fill:rgb(42.352941%,38.823529%,100%);fill-opacity:1;" d="M 468.589844 258.296875 L 472.824219 258.296875 C 472.824219 258.296875 474.152344 211.945312 468.589844 197.65625 L 467.527344 197.65625 C 467.527344 197.65625 471.246094 250.074219 468.589844 258.296875 Z M 468.589844 258.296875 "/>
<path style=" stroke:none;fill-rule:nonzero;fill:rgb(42.352941%,38.823529%,100%);fill-opacity:1;" d="M 471.5 195.296875 C 471.5 195.296875 474.945312 204.832031 473.351562 209.066406 C 473.351562 209.066406 470.96875 200.328125 468.1875 199.007812 C 465.40625 197.691406 462.496094 209.066406 462.496094 209.066406 C 461.632812 204.703125 462.101562 200.183594 463.847656 196.09375 C 460.121094 198.296875 457.089844 201.511719 455.109375 205.363281 C 455.109375 205.363281 454.578125 201.386719 461.464844 193.179688 C 457.765625 194.191406 454.328125 195.988281 451.382812 198.445312 C 451.382812 198.445312 450.03125 195.535156 458.269531 190.769531 C 458.269531 190.769531 457.210938 187.324219 450.859375 188.917969 C 450.859375 188.917969 450.859375 184.417969 460.917969 185.234375 C 460.917969 185.234375 460.917969 182.320312 454.28125 182.851562 C 454.28125 182.851562 454.28125 179.167969 461.957031 180.472656 C 461.246094 179.359375 460.351562 178.375 459.308594 177.5625 C 460.628906 177.445312 461.941406 177.824219 462.996094 178.621094 C 462.863281 175.890625 464.292969 173.316406 466.679688 171.984375 L 467.210938 178.621094 C 467.210938 178.621094 471.636719 173.378906 470.65625 174.386719 C 470.019531 175.984375 469.75 177.703125 469.859375 179.417969 C 472.886719 177.226562 477.007812 177.335938 479.914062 179.683594 C 479.914062 179.683594 473.027344 180.214844 471.972656 182.597656 C 474.320312 182.078125 476.742188 181.988281 479.121094 182.332031 C 479.121094 182.332031 474.621094 183.914062 474.886719 184.976562 C 474.886719 184.976562 482.828125 184.976562 483.886719 187.886719 C 480.914062 188.179688 477.980469 188.796875 475.144531 189.738281 C 478.835938 192.238281 482.210938 195.171875 485.203125 198.476562 C 481.582031 196.210938 477.769531 194.261719 473.8125 192.648438 C 472.222656 192.648438 480.960938 201.121094 480.453125 203.238281 C 480.503906 203.21875 473.359375 194.761719 471.5 195.296875 Z M 471.5 195.296875 "/>
<path style=" stroke:none;fill-rule:nonzero;fill:rgb(42.352941%,38.823529%,100%);fill-opacity:1;" d="M 519.277344 249.257812 L 521.902344 249.257812 C 521.902344 249.257812 522.71875 220.5625 519.277344 211.707031 L 518.621094 211.707031 C 518.621094 211.707031 520.914062 244.171875 519.277344 249.257812 Z M 519.277344 249.257812 "/>
<path style=" stroke:none;fill-rule:nonzero;fill:rgb(42.352941%,38.823529%,100%);fill-opacity:1;" d="M 521.082031 210.214844 C 522.148438 212.921875 522.542969 215.847656 522.234375 218.742188 C 522.234375 218.742188 520.757812 213.339844 519.035156 212.507812 C 517.3125 211.675781 515.511719 218.742188 515.511719 218.742188 C 514.972656 216.039062 515.257812 213.238281 516.328125 210.703125 C 514.027344 212.070312 512.15625 214.058594 510.929688 216.441406 C 510.929688 216.441406 510.605469 213.980469 514.867188 208.894531 C 512.578125 209.53125 510.453125 210.648438 508.636719 212.175781 C 508.636719 212.175781 507.816406 210.375 512.898438 207.417969 C 512.898438 207.417969 512.238281 205.285156 508.300781 206.265625 C 508.300781 206.265625 508.300781 203.480469 514.535156 203.972656 C 514.535156 203.972656 514.535156 202.171875 510.433594 202.496094 C 510.433594 202.496094 510.433594 200.199219 515.191406 201.019531 C 514.75 200.332031 514.199219 199.722656 513.554688 199.21875 C 514.375 199.144531 515.191406 199.378906 515.847656 199.875 C 515.769531 198.183594 516.660156 196.59375 518.144531 195.777344 L 518.46875 199.875 C 518.46875 199.875 521.226562 196.632812 520.601562 197.253906 C 520.207031 198.242188 520.039062 199.304688 520.105469 200.367188 C 521.980469 199 524.539062 199.066406 526.339844 200.527344 C 526.339844 200.527344 522.078125 200.851562 521.417969 202.328125 C 522.871094 202.007812 524.371094 201.953125 525.84375 202.167969 C 525.84375 202.167969 523.054688 203.148438 523.21875 203.804688 C 523.21875 203.804688 528.136719 203.804688 528.796875 205.605469 C 526.957031 205.785156 525.144531 206.171875 523.394531 206.757812 C 525.679688 208.304688 527.773438 210.117188 529.628906 212.15625 C 527.382812 210.757812 525.023438 209.554688 522.574219 208.558594 C 521.59375 208.558594 527 213.808594 526.675781 215.113281 C 526.660156 215.132812 522.230469 209.878906 521.082031 210.214844 Z M 521.082031 210.214844 "/>
<path style=" stroke:none;fill-rule:nonzero;fill:url(#linear3);" d="M 423.40625 216.789062 L 422.851562 213.835938 C 422.851562 213.398438 422.667969 212.980469 422.351562 212.679688 L 419.792969 211.421875 C 419.605469 211.203125 419.453125 210.953125 419.339844 210.683594 L 419.386719 210.617188 C 419.527344 210.441406 419.628906 210.238281 419.683594 210.019531 C 419.6875 209.960938 419.6875 209.90625 419.683594 209.847656 L 419.71875 209.847656 C 420.210938 209.914062 420.667969 209.59375 420.773438 209.109375 L 420.773438 209.042969 C 420.679688 209.453125 420.328125 209.753906 419.910156 209.78125 C 420.632812 209.296875 421.066406 208.484375 421.066406 207.613281 L 421.066406 207.5 C 421.300781 207.363281 421.464844 207.132812 421.515625 206.863281 L 421.515625 206.796875 C 421.453125 207.046875 421.289062 207.261719 421.066406 207.386719 C 421.046875 207.132812 420.992188 206.886719 420.902344 206.648438 L 420.96875 206.648438 C 421.496094 206.648438 421.921875 206.222656 421.921875 205.699219 L 421.921875 205.632812 C 421.894531 206.136719 421.480469 206.53125 420.976562 206.53125 L 420.859375 206.53125 L 420.859375 206.488281 C 421.4375 206.3125 421.863281 205.824219 421.953125 205.226562 L 421.953125 205.160156 C 421.9375 205.34375 421.871094 205.519531 421.757812 205.667969 C 421.789062 205.175781 421.441406 204.738281 420.949219 204.664062 C 420.460938 204.59375 420 204.90625 419.886719 205.390625 L 419.714844 205.292969 C 419.824219 204.90625 420.167969 204.625 420.570312 204.601562 L 420.503906 204.601562 C 420.09375 204.601562 419.734375 204.859375 419.601562 205.246094 C 418.421875 204.695312 417.019531 205.101562 416.3125 206.191406 C 416.113281 206.339844 415.863281 206.550781 415.863281 206.734375 C 415.777344 206.820312 415.699219 206.914062 415.632812 207.011719 C 415.351562 207.628906 415.246094 208.3125 415.335938 208.984375 C 415.417969 209.660156 415.164062 210.332031 414.65625 210.785156 C 414.878906 210.878906 415.128906 210.878906 415.351562 210.785156 C 415.570312 210.691406 415.773438 210.570312 415.960938 210.425781 C 416.140625 210.320312 416.296875 210.179688 416.410156 210.007812 L 416.410156 209.96875 C 416.535156 210.050781 416.667969 210.121094 416.804688 210.175781 C 416.851562 210.628906 416.871094 211.125 416.671875 211.296875 L 416.710938 211.214844 C 416.230469 211.566406 415.636719 211.726562 415.046875 211.667969 C 414.320312 211.707031 413.667969 212.128906 413.328125 212.773438 L 412.523438 216.128906 L 412.523438 216.246094 C 412.546875 216.339844 412.625 216.410156 412.71875 216.433594 L 412.96875 216.5 C 413.007812 217.074219 412.949219 217.648438 412.796875 218.203125 C 412.628906 219.03125 412.535156 219.871094 412.511719 220.710938 C 412.570312 221.128906 412.671875 223.320312 412.722656 224.359375 C 412.632812 224.714844 412.558594 225.074219 412.507812 225.4375 L 411.316406 232.558594 C 411.316406 232.558594 410.417969 238.261719 410.476562 239.984375 L 410.324219 240.980469 C 410.324219 240.980469 407.910156 244.003906 408.617188 244.429688 C 409.324219 244.859375 410.417969 245.042969 411.457031 243.4375 C 411.597656 243.058594 411.828125 242.71875 412.125 242.441406 C 412.363281 242.234375 412.488281 241.925781 412.457031 241.609375 L 412.382812 240.871094 L 412.511719 240.917969 L 412.582031 240.917969 C 413.234375 238.761719 413.589844 236.527344 413.636719 234.277344 C 414.429688 231.070312 415.734375 228.007812 417.503906 225.214844 L 417.503906 225.167969 L 417.660156 225.09375 L 418.015625 232.679688 L 417.652344 241.046875 L 417.574219 241.546875 C 417.574219 241.546875 415.160156 244.570312 415.867188 244.996094 C 416.574219 245.425781 417.667969 245.609375 418.707031 244.003906 C 418.847656 243.625 419.074219 243.285156 419.367188 243.007812 C 419.609375 242.800781 419.734375 242.492188 419.703125 242.175781 L 419.589844 241.070312 C 420.414062 238.550781 420.765625 235.898438 420.628906 233.253906 L 421.367188 228.253906 C 421.859375 227.351562 422.082031 226.328125 422.011719 225.300781 C 422.472656 223.339844 422.722656 221.328125 422.746094 219.3125 L 422.898438 216.953125 C 423.007812 216.945312 423.117188 216.945312 423.230469 216.953125 L 423.347656 216.953125 L 423.347656 216.910156 C 423.367188 216.890625 423.382812 216.867188 423.394531 216.839844 L 423.441406 216.839844 L 423.441406 216.78125 Z M 421.339844 221.578125 C 421.273438 221.417969 421.199219 221.257812 421.117188 221.09375 L 421.058594 221.09375 L 421.058594 221.035156 C 421.058594 221.015625 421.058594 220.996094 421.058594 220.976562 L 421.058594 220.917969 C 421.09375 220.839844 421.125 220.757812 421.152344 220.675781 C 421.246094 220.523438 421.296875 220.347656 421.289062 220.167969 C 421.375 220.632812 421.390625 221.109375 421.339844 221.578125 Z M 421.117188 219.558594 L 420.96875 217.980469 L 421.015625 217.855469 L 421.214844 219.859375 Z M 414.125 219.777344 C 414.019531 219.898438 413.96875 220.0625 413.996094 220.226562 L 413.996094 220.273438 C 414 220.425781 414.023438 220.578125 414.0625 220.726562 L 413.832031 221.714844 L 413.832031 219.824219 C 413.984375 219.625 414.121094 219.414062 414.234375 219.191406 C 414.257812 219.390625 414.21875 219.59375 414.125 219.777344 Z M 414.125 219.777344 "/>
<path style=" stroke:none;fill-rule:nonzero;fill:rgb(44.705882%,20.784314%,10.980392%);fill-opacity:1;" d="M 415.617188 207.59375 C 415.34375 208.1875 415.246094 208.84375 415.328125 209.488281 C 415.40625 210.140625 415.160156 210.792969 414.671875 211.230469 C 414.886719 211.320312 415.125 211.320312 415.339844 211.230469 C 415.550781 211.140625 415.75 211.023438 415.929688 210.882812 C 416.097656 210.78125 416.242188 210.644531 416.347656 210.476562 C 416.449219 210.222656 416.484375 209.945312 416.445312 209.671875 C 416.445312 209.191406 416.488281 208.707031 416.570312 208.234375 C 416.613281 207.9375 416.894531 207.136719 416.570312 206.976562 C 416.246094 206.820312 415.753906 207.375 415.617188 207.59375 Z M 415.617188 207.59375 "/>
<path style=" stroke:none;fill-rule:nonzero;fill:rgb(20%,20%,20%);fill-opacity:1;" d="M 410.742188 238.945312 L 410.511719 240.421875 C 410.511719 240.421875 408.191406 243.375 408.875 243.746094 C 409.558594 244.121094 410.605469 244.335938 411.609375 242.789062 C 411.746094 242.425781 411.960938 242.097656 412.246094 241.828125 C 412.476562 241.628906 412.59375 241.328125 412.558594 241.023438 L 412.332031 238.773438 Z M 410.742188 238.945312 "/>
<path style=" stroke:none;fill-rule:nonzero;fill:rgb(20%,20%,20%);fill-opacity:1;" d="M 417.730469 239.527344 L 417.5 241.003906 C 417.5 241.003906 415.179688 243.953125 415.863281 244.328125 C 416.546875 244.699219 417.59375 244.917969 418.597656 243.367188 C 418.734375 243.003906 418.949219 242.675781 419.234375 242.410156 C 419.464844 242.210938 419.582031 241.910156 419.546875 241.605469 L 419.320312 239.355469 Z M 417.730469 239.527344 "/>
<path style=" stroke:none;fill-rule:nonzero;fill:rgb(30.196078%,54.117647%,94.117647%);fill-opacity:1;" d="M 414.097656 221.871094 C 413.179688 222.824219 412.652344 224.082031 412.621094 225.40625 L 411.480469 232.273438 C 411.066406 234.726562 410.800781 237.207031 410.691406 239.691406 L 412.621094 240.355469 C 413.25 238.285156 413.59375 236.136719 413.640625 233.972656 C 413.640625 233.972656 415.960938 225.699219 417.589844 225.121094 L 417.9375 232.429688 L 417.570312 240.652344 L 419.21875 240.984375 C 420.082031 238.40625 420.46875 235.691406 420.363281 232.972656 L 421.226562 227.074219 C 421.78125 225.121094 421.648438 223.039062 420.84375 221.175781 Z M 414.097656 221.871094 "/>
<use xlink:href="#surface113" mask="url(#mask36)"/>
<path style=" stroke:none;fill-rule:nonzero;fill:rgb(96.078431%,37.254902%,26.666667%);fill-opacity:1;" d="M 412.628906 216.515625 C 412.625 216.632812 412.707031 216.738281 412.820312 216.761719 C 413.359375 216.894531 413.863281 217.148438 414.296875 217.5 C 415.105469 218.132812 413.433594 216.230469 413.433594 216.230469 L 412.871094 216.355469 L 412.640625 216.5625 Z M 412.628906 216.515625 "/>
<use xlink:href="#surface116" mask="url(#mask37)"/>
<path style=" stroke:none;fill-rule:nonzero;fill:rgb(96.078431%,37.254902%,26.666667%);fill-opacity:1;" d="M 420.609375 218.195312 C 421.292969 217.714844 422.082031 217.40625 422.910156 217.296875 C 423.027344 217.296875 423.125 217.199219 423.125 217.078125 C 422.648438 216.859375 422.097656 216.855469 421.617188 217.070312 C 421.136719 217.285156 420.769531 217.695312 420.609375 218.195312 Z M 420.609375 218.195312 "/>
<use xlink:href="#surface119" mask="url(#mask38)"/>
<path style=" stroke:none;fill-rule:nonzero;fill:rgb(44.705882%,20.784314%,10.980392%);fill-opacity:1;" d="M 420.878906 208.183594 C 420.878906 209.574219 419.753906 210.699219 418.363281 210.699219 C 416.976562 210.699219 415.847656 209.574219 415.847656 208.183594 C 415.847656 206.792969 416.976562 205.667969 418.363281 205.667969 C 419.753906 205.667969 420.878906 206.792969 420.878906 208.183594 Z M 420.878906 208.183594 "/>
<path style=" stroke:none;fill-rule:nonzero;fill:rgb(99.215686%,71.764706%,59.215686%);fill-opacity:1;" d="M 416.632812 209.949219 C 416.632812 209.949219 416.988281 211.421875 416.632812 211.726562 C 416.277344 212.027344 415.5625 212.589844 416.101562 213.019531 C 416.640625 213.453125 418.5625 214.195312 419.207031 213.832031 C 419.851562 213.464844 420.554688 213.578125 420.402344 212.839844 C 420.25 212.101562 418.824219 212.261719 418.800781 208.59375 Z M 416.632812 209.949219 "/>
<use xlink:href="#surface122" mask="url(#mask39)"/>
<path style=" stroke:none;fill-rule:nonzero;fill:rgb(99.215686%,71.764706%,59.215686%);fill-opacity:1;" d="M 413.050781 216.070312 C 413.105469 216.871094 413.050781 217.675781 412.898438 218.460938 C 412.734375 219.257812 412.640625 220.0625 412.617188 220.875 C 412.691406 221.40625 412.847656 224.921875 412.847656 224.921875 C 412.847656 224.921875 412.570312 227.996094 414.0625 227.71875 C 415.558594 227.4375 413.832031 224.207031 413.832031 224.207031 L 413.90625 220.007812 C 414.3125 219.457031 414.566406 218.808594 414.644531 218.128906 C 414.746094 217.113281 413.050781 216.070312 413.050781 216.070312 Z M 413.050781 216.070312 "/>
<use xlink:href="#surface125" mask="url(#mask40)"/>
<path style=" stroke:none;fill-rule:nonzero;fill:rgb(99.215686%,71.764706%,59.215686%);fill-opacity:1;" d="M 422.648438 216.300781 L 422.441406 219.582031 C 422.429688 221.523438 422.199219 223.460938 421.757812 225.351562 C 421.757812 225.351562 421.910156 228.582031 420.40625 228.5 C 418.90625 228.421875 420.660156 224.96875 420.660156 224.96875 C 421.050781 223.425781 421.179688 221.828125 421.050781 220.238281 L 420.660156 216.300781 Z M 422.648438 216.300781 "/>
<use xlink:href="#surface128" mask="url(#mask41)"/>
<use xlink:href="#surface131" mask="url(#mask42)"/>
<path style=" stroke:none;fill-rule:nonzero;fill:rgb(96.078431%,37.254902%,26.666667%);fill-opacity:1;" d="M 417.902344 213.117188 C 418.234375 213.207031 419.117188 213.300781 419.648438 211.964844 L 422.117188 213.175781 C 422.425781 213.464844 422.601562 213.871094 422.597656 214.292969 L 423.128906 217.144531 C 422.675781 216.960938 422.164062 216.972656 421.71875 217.171875 C 421.273438 217.375 420.925781 217.75 420.761719 218.214844 L 420.917969 219.816406 C 421.035156 220.210938 421.003906 220.636719 420.835938 221.011719 C 420.804688 221.082031 420.804688 221.160156 420.835938 221.230469 C 420.910156 221.464844 420.867188 221.722656 420.722656 221.921875 C 420.578125 222.125 420.34375 222.242188 420.097656 222.246094 C 419.433594 222.253906 418.769531 222.304688 418.113281 222.398438 C 417.582031 222.550781 415.976562 222.097656 415.445312 222.398438 C 414.914062 222.699219 413.792969 222.167969 413.792969 222.167969 L 414.09375 220.875 C 414.09375 220.875 413.886719 220.238281 414.144531 220.007812 C 414.339844 219.089844 414.296875 218.136719 414.019531 217.238281 C 414.019531 217.238281 413.117188 216.375 412.542969 216.5 L 413.28125 213.21875 C 413.605469 212.597656 414.230469 212.1875 414.929688 212.148438 C 415.503906 212.203125 416.074219 212.042969 416.535156 211.699219 C 416.535156 211.699219 415.933594 212.792969 417.503906 213.046875 Z M 417.902344 213.117188 "/>
<use xlink:href="#surface134" mask="url(#mask43)"/>
<path style=" stroke:none;fill-rule:nonzero;fill:rgb(99.215686%,71.764706%,59.215686%);fill-opacity:1;" d="M 419.621094 208.714844 C 419.621094 209.867188 418.6875 210.800781 417.53125 210.800781 C 416.378906 210.800781 415.445312 209.867188 415.445312 208.714844 C 415.445312 207.5625 416.378906 206.625 417.53125 206.625 C 418.6875 206.625 419.621094 207.5625 419.621094 208.714844 Z M 419.621094 208.714844 "/>
<path style=" stroke:none;fill-rule:nonzero;fill:rgb(44.705882%,20.784314%,10.980392%);fill-opacity:1;" d="M 421.519531 206.199219 C 421.519531 206.703125 421.109375 207.113281 420.605469 207.113281 C 420.101562 207.113281 419.691406 206.703125 419.691406 206.199219 C 419.691406 205.695312 420.101562 205.285156 420.605469 205.285156 C 421.109375 205.285156 421.519531 205.695312 421.519531 206.199219 Z M 421.519531 206.199219 "/>
<path style=" stroke:none;fill-rule:nonzero;fill:rgb(44.705882%,20.784314%,10.980392%);fill-opacity:1;" d="M 420.773438 207.160156 C 420.296875 207.164062 419.902344 206.792969 419.871094 206.316406 L 419.871094 206.382812 C 419.871094 206.886719 420.28125 207.296875 420.785156 207.296875 C 421.289062 207.296875 421.699219 206.886719 421.699219 206.382812 L 421.699219 206.316406 C 421.671875 206.800781 421.257812 207.175781 420.773438 207.160156 Z M 420.773438 207.160156 "/>
<path style=" stroke:none;fill-rule:nonzero;fill:rgb(44.705882%,20.784314%,10.980392%);fill-opacity:1;" d="M 420.265625 208.035156 C 419.789062 207.953125 419.464844 207.507812 419.527344 207.03125 L 419.527344 207.089844 C 419.433594 207.585938 419.761719 208.066406 420.257812 208.15625 C 420.757812 208.25 421.234375 207.921875 421.324219 207.421875 L 421.324219 207.355469 C 421.214844 207.832031 420.742188 208.136719 420.265625 208.035156 Z M 420.265625 208.035156 "/>
<path style=" stroke:none;fill-rule:nonzero;fill:rgb(44.705882%,20.784314%,10.980392%);fill-opacity:1;" d="M 419.554688 210.25 C 419.078125 210.167969 418.753906 209.722656 418.816406 209.246094 L 418.816406 209.304688 C 418.722656 209.800781 419.050781 210.277344 419.546875 210.371094 C 420.046875 210.460938 420.523438 210.132812 420.613281 209.636719 L 420.613281 209.570312 C 420.503906 210.046875 420.03125 210.351562 419.554688 210.25 Z M 419.554688 210.25 "/>
<path style=" stroke:none;fill-rule:nonzero;fill:rgb(44.705882%,20.784314%,10.980392%);fill-opacity:1;" d="M 420.773438 206.675781 C 420.292969 206.675781 419.898438 206.300781 419.871094 205.820312 L 419.871094 205.886719 C 419.871094 206.394531 420.28125 206.800781 420.785156 206.800781 C 421.289062 206.800781 421.699219 206.394531 421.699219 205.886719 L 421.699219 205.820312 C 421.675781 206.3125 421.261719 206.691406 420.773438 206.675781 Z M 420.773438 206.675781 "/>
<path style=" stroke:none;fill-rule:nonzero;fill:rgb(44.705882%,20.784314%,10.980392%);fill-opacity:1;" d="M 419.507812 206.183594 C 419.507812 205.703125 419.890625 205.304688 420.371094 205.285156 L 420.304688 205.285156 C 419.800781 205.285156 419.390625 205.695312 419.390625 206.199219 C 419.390625 206.703125 419.800781 207.113281 420.304688 207.113281 L 420.371094 207.113281 C 419.878906 207.09375 419.492188 206.679688 419.507812 206.183594 Z M 419.507812 206.183594 "/>
<use xlink:href="#surface137" mask="url(#mask44)"/>
<use xlink:href="#surface140" mask="url(#mask45)"/>
<use xlink:href="#surface143" mask="url(#mask46)"/>
<use xlink:href="#surface146" mask="url(#mask47)"/>
<path style=" stroke:none;fill-rule:nonzero;fill:rgb(99.215686%,71.764706%,59.215686%);fill-opacity:1;" d="M 413.117188 229.15625 L 413.730469 229.15625 C 414.003906 229.15625 414.226562 229.378906 414.226562 229.652344 C 414.226562 229.925781 414.003906 230.148438 413.730469 230.148438 L 413.117188 230.148438 C 412.84375 230.148438 412.621094 229.925781 412.621094 229.652344 C 412.621094 229.378906 412.84375 229.15625 413.117188 229.15625 Z M 413.117188 229.15625 "/>
<path style=" stroke:none;fill-rule:nonzero;fill:rgb(94.117647%,89.411765%,89.411765%);fill-opacity:1;" d="M 412.628906 229.421875 L 413.484375 229.386719 L 414.21875 229.503906 L 413.964844 229.503906 Z M 412.628906 229.421875 "/>
<path style=" stroke:none;fill-rule:nonzero;fill:rgb(94.117647%,89.411765%,89.411765%);fill-opacity:1;" d="M 418.398438 225.285156 L 419.25 225.285156 L 419.988281 225.355469 L 419.746094 225.355469 Z M 418.398438 225.285156 "/>
<path style=" stroke:none;fill-rule:nonzero;fill:rgb(94.117647%,89.411765%,89.411765%);fill-opacity:1;" d="M 418.398438 225.464844 L 419.25 225.464844 L 419.988281 225.535156 L 419.746094 225.535156 Z M 418.398438 225.464844 "/>
<path style=" stroke:none;fill-rule:nonzero;fill:rgb(94.117647%,89.411765%,89.411765%);fill-opacity:1;" d="M 418.398438 225.648438 L 419.25 225.648438 L 419.988281 225.71875 L 419.746094 225.71875 Z M 418.398438 225.648438 "/>
<path style=" stroke:none;fill-rule:nonzero;fill:rgb(94.117647%,89.411765%,89.411765%);fill-opacity:1;" d="M 418.398438 225.824219 L 419.25 225.824219 L 419.988281 225.894531 L 419.746094 225.894531 Z M 418.398438 225.824219 "/>
<path style=" stroke:none;fill-rule:nonzero;fill:rgb(94.117647%,89.411765%,89.411765%);fill-opacity:1;" d="M 412.628906 230.109375 L 413.484375 230.109375 L 414.21875 230.199219 L 413.964844 230.199219 Z M 412.628906 230.109375 "/>
<path style=" stroke:none;fill-rule:nonzero;fill:rgb(94.117647%,89.411765%,89.411765%);fill-opacity:1;" d="M 412.628906 230.023438 L 413.484375 230.023438 L 414.21875 230.113281 L 413.964844 230.113281 Z M 412.628906 230.023438 "/>
<path style=" stroke:none;fill-rule:nonzero;fill:rgb(94.117647%,89.411765%,89.411765%);fill-opacity:1;" d="M 412.628906 229.933594 L 413.484375 229.933594 L 414.21875 230.023438 L 413.964844 230.023438 Z M 412.628906 229.933594 "/>
<path style=" stroke:none;fill-rule:nonzero;fill:rgb(94.117647%,89.411765%,89.411765%);fill-opacity:1;" d="M 412.628906 229.84375 L 413.484375 229.84375 L 414.21875 229.933594 L 413.964844 229.933594 Z M 412.628906 229.84375 "/>
<path style=" stroke:none;fill-rule:nonzero;fill:rgb(94.117647%,89.411765%,89.411765%);fill-opacity:1;" d="M 412.628906 229.289062 L 413.484375 229.253906 L 414.21875 229.371094 L 413.964844 229.371094 Z M 412.628906 229.289062 "/>
<path style=" stroke:none;fill-rule:nonzero;fill:rgb(94.117647%,89.411765%,89.411765%);fill-opacity:1;" d="M 412.628906 229.136719 L 413.484375 229.097656 L 414.21875 229.214844 L 413.964844 229.214844 Z M 412.628906 229.136719 "/>
<use xlink:href="#surface149" mask="url(#mask48)"/>
<path style=" stroke:none;fill-rule:nonzero;fill:rgb(44.705882%,20.784314%,10.980392%);fill-opacity:1;" d="M 417.9375 207.363281 C 417.855469 208.144531 417.957031 208.929688 418.234375 209.664062 C 418.511719 210.386719 418.46875 211.1875 418.121094 211.878906 C 418.351562 211.929688 418.59375 211.871094 418.769531 211.714844 C 418.945312 211.554688 419.097656 211.367188 419.21875 211.164062 C 419.355469 210.992188 419.457031 210.796875 419.507812 210.585938 C 419.53125 210.253906 419.480469 209.921875 419.359375 209.613281 C 419.214844 209.050781 419.113281 208.476562 419.050781 207.894531 C 419.003906 207.539062 419.050781 206.546875 418.652344 206.417969 C 418.257812 206.292969 418.007812 207.058594 417.9375 207.363281 Z M 417.9375 207.363281 "/>
<use xlink:href="#surface152" mask="url(#mask49)"/>
<path style=" stroke:none;fill-rule:nonzero;fill:rgb(44.705882%,20.784314%,10.980392%);fill-opacity:1;" d="M 417.089844 207.871094 C 417.265625 208.058594 417.308594 208.324219 417.453125 208.535156 C 417.714844 208.820312 418.09375 208.972656 418.480469 208.949219 C 418.585938 208.941406 418.691406 208.964844 418.785156 209.015625 C 418.945312 209.121094 418.953125 209.351562 419.058594 209.515625 C 419.167969 209.636719 419.324219 209.703125 419.488281 209.703125 C 419.652344 209.703125 419.808594 209.636719 419.921875 209.515625 C 420.132812 209.261719 420.25 208.945312 420.253906 208.617188 C 420.289062 208.25 420.289062 207.882812 420.253906 207.515625 C 420.25 207.101562 420.089844 206.703125 419.804688 206.398438 C 419.5625 206.21875 419.28125 206.09375 418.984375 206.042969 C 418.582031 205.898438 418.148438 205.867188 417.726562 205.945312 C 417.519531 206.015625 417.328125 206.113281 417.148438 206.234375 C 416.898438 206.398438 416.652344 206.5625 416.410156 206.730469 C 416.136719 206.921875 415.625 207.304688 416.125 207.511719 C 416.429688 207.652344 416.847656 207.59375 417.089844 207.871094 Z M 417.089844 207.871094 "/>
<path style=" stroke:none;fill-rule:nonzero;fill:rgb(94.117647%,89.411765%,89.411765%);fill-opacity:1;" d="M 418.445312 225.285156 L 419.300781 225.285156 L 420.039062 225.355469 L 419.796875 225.355469 Z M 418.445312 225.285156 "/>
<path style=" stroke:none;fill-rule:nonzero;fill:rgb(94.117647%,89.411765%,89.411765%);fill-opacity:1;" d="M 418.445312 225.464844 L 419.300781 225.464844 L 420.039062 225.535156 L 419.796875 225.535156 Z M 418.445312 225.464844 "/>
<path style=" stroke:none;fill-rule:nonzero;fill:rgb(94.117647%,89.411765%,89.411765%);fill-opacity:1;" d="M 418.445312 225.648438 L 419.300781 225.648438 L 420.039062 225.71875 L 419.796875 225.71875 Z M 418.445312 225.648438 "/>
<path style=" stroke:none;fill-rule:nonzero;fill:rgb(94.117647%,89.411765%,89.411765%);fill-opacity:1;" d="M 418.445312 225.824219 L 419.300781 225.824219 L 420.039062 225.894531 L 419.796875 225.894531 Z M 418.445312 225.824219 "/>
<path style=" stroke:none;fill-rule:nonzero;fill:rgb(94.117647%,89.411765%,89.411765%);fill-opacity:1;" d="M 418.078125 235.609375 L 418.933594 235.609375 L 419.671875 235.683594 L 419.414062 235.683594 Z M 418.078125 235.609375 "/>
<path style=" stroke:none;fill-rule:nonzero;fill:rgb(94.117647%,89.411765%,89.411765%);fill-opacity:1;" d="M 418.078125 235.796875 L 418.933594 235.796875 L 419.671875 235.867188 L 419.414062 235.867188 Z M 418.078125 235.796875 "/>
<path style=" stroke:none;fill-rule:nonzero;fill:rgb(94.117647%,89.411765%,89.411765%);fill-opacity:1;" d="M 418.078125 235.972656 L 418.933594 235.972656 L 419.671875 236.042969 L 419.414062 236.042969 Z M 418.078125 235.972656 "/>
<path style=" stroke:none;fill-rule:nonzero;fill:rgb(94.117647%,89.411765%,89.411765%);fill-opacity:1;" d="M 418.078125 236.152344 L 418.933594 236.152344 L 419.671875 236.222656 L 419.414062 236.222656 Z M 418.078125 236.152344 "/>
</g>
</svg>
