<svg width="1920" height="1080" viewBox="0 0 1920 1080" fill="none" xmlns="http://www.w3.org/2000/svg">
<rect width="1920" height="1080" fill="#F8FAFC"/>
<g clip-path="url(#clip0_343_2115)">
<path d="M1404.13 220.042H574.206C569.747 220.042 566.133 223.656 566.133 228.115V706.636C566.133 711.094 569.747 714.709 574.206 714.709H1404.13C1408.59 714.709 1412.2 711.094 1412.2 706.636V228.115C1412.2 223.656 1408.59 220.042 1404.13 220.042Z" fill="white" stroke="black" stroke-width="2.7"/>
<path d="M784.239 647.524H947.823C954.339 647.524 959.622 640.918 959.622 632.764V412.102C959.622 403.948 954.339 397.342 947.823 397.342H636.207C629.691 397.342 624.408 403.948 624.408 412.102V632.764C624.408 640.918 629.691 647.524 636.207 647.524H769.236" stroke="black" stroke-width="2.7" stroke-linecap="round" stroke-linejoin="round"/>
<path d="M959.451 423.126H624.498" stroke="black" stroke-width="2.7" stroke-linecap="round" stroke-linejoin="round"/>
<path d="M643.002 414.864C645.774 414.864 648.024 412.614 648.024 409.842C648.024 407.07 645.774 404.82 643.002 404.82C640.23 404.82 637.98 407.07 637.98 409.842C637.98 412.614 640.23 414.864 643.002 414.864Z" fill="black"/>
<path d="M663.171 414.864C665.943 414.864 668.193 412.614 668.193 409.842C668.193 407.07 665.943 404.82 663.171 404.82C660.399 404.82 658.149 407.07 658.149 409.842C658.149 412.614 660.399 414.864 663.171 414.864Z" fill="black"/>
<path d="M682.088 414.864C684.86 414.864 687.11 412.614 687.11 409.842C687.11 407.07 684.86 404.82 682.088 404.82C679.316 404.82 677.066 407.07 677.066 409.842C677.066 412.614 679.316 414.864 682.088 414.864Z" fill="black"/>
<path d="M656.799 455.634H812.256" stroke="black" stroke-width="2.7" stroke-linecap="round" stroke-linejoin="round"/>
<path d="M1215.16 647.524H1340.5C1347.03 647.524 1352.3 640.918 1352.3 632.764V412.102C1352.3 403.948 1347.03 397.342 1340.5 397.342H1028.9C1022.39 397.342 1017.11 403.948 1017.11 412.102V632.764C1017.11 640.918 1022.4 647.524 1028.9 647.524H1225.67" stroke="black" stroke-width="2.7" stroke-linecap="round" stroke-linejoin="round"/>
<path d="M1017.45 420.787H1352.26" stroke="black" stroke-width="2.7" stroke-linecap="round" stroke-linejoin="round"/>
<path d="M1037.04 414.064C1039.81 414.064 1042.06 411.814 1042.06 409.042C1042.06 406.27 1039.81 404.02 1037.04 404.02C1034.27 404.02 1032.03 406.27 1032.03 409.042C1032.03 411.814 1034.27 414.064 1037.04 414.064Z" fill="black"/>
<path d="M1057.23 414.064C1060 414.064 1062.25 411.814 1062.25 409.042C1062.25 406.27 1060 404.02 1057.23 404.02C1054.45 404.02 1052.21 406.27 1052.21 409.042C1052.21 411.814 1054.45 414.064 1057.23 414.064Z" fill="black"/>
<path d="M1076.13 414.064C1078.9 414.064 1081.15 411.814 1081.15 409.042C1081.15 406.27 1078.9 404.02 1076.13 404.02C1073.36 404.02 1071.11 406.27 1071.11 409.042C1071.11 411.814 1073.36 414.064 1076.13 414.064Z" fill="black"/>
<path d="M1149.5 480.52C1166.69 490.564 1178.22 509.203 1178.22 530.533C1178.22 562.501 1152.29 588.421 1120.33 588.421C1088.36 588.421 1062.43 562.501 1062.43 530.533C1062.43 498.565 1088.36 472.645 1120.33 472.645V530.533L1149.49 480.52H1149.49H1149.5Z" stroke="#0527FF" stroke-width="2.7" stroke-linecap="round" stroke-linejoin="round"/>
<path d="M1162.03 570.592C1139.93 593.677 1103.32 594.451 1080.26 572.338C1057.19 550.216 1056.43 513.568 1078.52 490.483C1100.62 467.398 1137.22 466.624 1160.29 488.737L1120.28 530.533L1162.04 570.583L1162.03 570.592Z" stroke="#0527FF" stroke-width="2.7" stroke-linecap="round" stroke-linejoin="round"/>
<path d="M1205.76 519.598H1296.45" stroke="black" stroke-width="2.7" stroke-linecap="round" stroke-linejoin="round"/>
<path d="M1205.76 499.356H1285.91" stroke="black" stroke-width="2.7" stroke-linecap="round" stroke-linejoin="round"/>
<path d="M1205.76 479.926H1306.97" stroke="black" stroke-width="2.7" stroke-linecap="round" stroke-linejoin="round"/>
<path d="M1216.28 575.469C1222.1 575.469 1226.8 570.573 1226.8 564.534C1226.8 558.495 1222.1 553.599 1216.28 553.599C1210.47 553.599 1205.76 558.495 1205.76 564.534C1205.76 570.573 1210.47 575.469 1216.28 575.469Z" stroke="black" stroke-width="2.7" stroke-linecap="round" stroke-linejoin="round"/>
<path d="M1250.69 575.469C1256.72 575.469 1261.62 570.573 1261.62 564.534C1261.62 558.495 1256.72 553.599 1250.69 553.599C1244.66 553.599 1239.75 558.495 1239.75 564.534C1239.75 570.573 1244.65 575.469 1250.69 575.469Z" stroke="black" stroke-width="2.7" stroke-linecap="round" stroke-linejoin="round"/>
<path fill-rule="evenodd" clip-rule="evenodd" d="M690.801 136.35C680.964 136.35 672.99 144.324 672.99 154.161V314.478C672.99 324.315 680.964 332.289 690.801 332.289H719.979C725.883 332.289 726.513 334.296 727.395 337.059C727.467 337.266 727.53 337.482 727.602 337.698L732.453 353.178C732.966 354.987 733.992 355.761 735.513 355.761H737.574C739.113 355.761 740.13 354.987 740.634 353.178L745.485 337.698C745.557 337.482 745.62 337.275 745.692 337.059C746.574 334.287 747.213 332.289 753.117 332.28H1227.62C1237.45 332.28 1245.43 324.306 1245.43 314.469V154.161C1245.43 144.324 1237.45 136.35 1227.62 136.35H690.801Z" fill="white" stroke="black" stroke-width="2.7"/>
<path d="M1098.88 306.657V293.706C1098.88 290.574 1096.34 288.036 1093.21 288.036H999.294C996.162 288.036 993.624 290.574 993.624 293.706V306.657C993.624 309.789 996.162 312.327 999.294 312.327H1093.21C1096.34 312.327 1098.88 309.789 1098.88 306.657Z" stroke="#0527FF" stroke-width="2.7" stroke-linecap="round" stroke-linejoin="round"/>
<path d="M1211.4 190.872V259.695C1211.4 265.05 1207.06 269.388 1201.7 269.388H1004.96C999.599 269.388 995.261 265.05 995.261 259.695V190.872C995.261 185.517 999.599 181.179 1004.96 181.179H1201.7C1207.06 181.179 1211.4 185.517 1211.4 190.872Z" fill="white" stroke="black" stroke-width="2.7" stroke-linecap="round"/>
<path d="M1213.04 306.657V293.706C1213.04 290.574 1210.5 288.036 1207.37 288.036H1121.54C1118.42 288.036 1115.88 290.574 1115.88 293.706V306.657C1115.88 309.789 1118.42 312.327 1121.54 312.327H1207.37C1210.5 312.327 1213.04 309.789 1213.04 306.657Z" stroke="#0527FF" stroke-width="2.7" stroke-linecap="round" stroke-linejoin="round"/>
<path d="M713.878 313.137C717.235 313.137 719.953 310.239 719.953 306.657C719.953 303.075 717.235 300.177 713.878 300.177C710.521 300.177 707.803 303.075 707.803 306.657C707.803 310.239 710.521 313.137 713.878 313.137Z" stroke="black" stroke-width="2.7" stroke-linecap="round" stroke-linejoin="round"/>
<path d="M751.523 313.137C755.105 313.137 758.003 310.239 758.003 306.657C758.003 303.075 755.105 300.177 751.523 300.177C747.941 300.177 745.043 303.075 745.043 306.657C745.043 310.239 747.941 313.137 751.523 313.137Z" stroke="black" stroke-width="2.7" stroke-linecap="round" stroke-linejoin="round"/>
<path d="M788.775 313.137C792.357 313.137 795.255 310.239 795.255 306.657C795.255 303.075 792.357 300.177 788.775 300.177C785.193 300.177 782.295 303.075 782.295 306.657C782.295 310.239 785.193 313.137 788.775 313.137Z" stroke="black" stroke-width="2.7" stroke-linecap="round" stroke-linejoin="round"/>
<path d="M704.336 277.165H867.893" stroke="black" stroke-width="2.7" stroke-linecap="round" stroke-linejoin="round"/>
<path d="M704.336 258.588H879.224" stroke="black" stroke-width="2.7" stroke-linecap="round" stroke-linejoin="round"/>
<path d="M1406.84 302.292C1446.06 302.292 1477.86 270.254 1477.86 230.733C1477.86 191.212 1446.06 159.174 1406.84 159.174C1367.62 159.174 1335.82 191.212 1335.82 230.733C1335.82 270.254 1367.62 302.292 1406.84 302.292Z" fill="#0527FF"/>
<path d="M1388.52 248.761H1397.57C1398.24 248.761 1398.7 248.455 1399.04 247.987L1407.42 237.376C1407.69 237.016 1408.15 237.016 1408.43 237.376L1416.75 247.987C1417.15 248.446 1417.62 248.761 1418.29 248.761H1427.33C1428.34 248.761 1429.13 248.14 1428.4 247.267L1415.28 231.355C1414.76 230.689 1414.76 230.374 1415.28 229.762L1428.27 214.156C1428.93 213.328 1428.21 212.716 1427.13 212.716H1418.08C1417.41 212.716 1417.02 213.022 1416.61 213.49L1408.43 223.687C1408.16 224.047 1407.7 224.047 1407.42 223.687L1399.24 213.49C1398.78 213.031 1398.37 212.716 1397.78 212.716H1388.72C1387.59 212.716 1386.92 213.337 1387.59 214.156L1400.58 229.816C1401.1 230.383 1401.03 230.743 1400.58 231.31L1387.45 247.276C1386.72 248.149 1387.52 248.77 1388.52 248.77V248.761Z" fill="white"/>
<path d="M704.202 206.146H908.241" stroke="black" stroke-width="2.7" stroke-linecap="round" stroke-linejoin="round"/>
<path d="M692.322 525.168C586.896 562.86 406.41 649.719 443.22 575.424C477.051 507.141 571.596 661.185 709.8 767.709C848.004 874.233 1612.24 772.083 1442.35 318.132" stroke="#0527FF" stroke-width="2.7" stroke-linecap="round" stroke-linejoin="round"/>
<path d="M1465.11 684.792H1142.04C1133.11 684.792 1125.87 692.033 1125.87 700.965V882.333C1125.87 891.266 1133.11 898.507 1142.04 898.507H1465.11C1474.04 898.507 1481.28 891.266 1481.28 882.333V700.965C1481.28 692.033 1474.04 684.792 1465.11 684.792Z" fill="white" stroke="black" stroke-width="2.7" stroke-linecap="round"/>
<path d="M1170.38 758.458H1283.74" stroke="black" stroke-width="2.7" stroke-linecap="round" stroke-linejoin="round"/>
<path d="M1170.38 738.208H1269.97" stroke="black" stroke-width="2.7" stroke-linecap="round" stroke-linejoin="round"/>
<path d="M1170.38 718.777H1296.69" stroke="black" stroke-width="2.7" stroke-linecap="round" stroke-linejoin="round"/>
<path d="M1167.95 858.043L1215.2 829.036L1256.28 841.879L1343.09 788.158L1378.75 807.166L1439.18 776.269" stroke="#0527FF" stroke-width="2.7" stroke-linecap="round" stroke-linejoin="round"/>
<path d="M704.202 240.013H923.622" stroke="black" stroke-width="2.7" stroke-linecap="round" stroke-linejoin="round"/>
<path d="M704.202 224.721H923.622" stroke="black" stroke-width="2.7" stroke-linecap="round" stroke-linejoin="round"/>
<path d="M685.463 943.992C685.121 944.352 684.986 944.838 685.085 945.324C685.184 945.792 685.517 946.197 685.958 946.386L705.821 954.801C706.19 954.954 706.604 954.954 706.982 954.801C707.36 954.648 707.657 954.342 707.81 953.973L709.214 950.364C716.774 955.926 727.799 961.605 740.552 966.492C748.715 969.624 757.238 971.901 765.914 973.242C766.094 973.269 766.283 973.269 766.445 973.242C766.922 973.143 767.345 972.81 767.534 972.324C768.488 969.867 768.713 967.5 768.182 965.313C766.949 960.192 762.098 957.951 756.95 955.566C752.576 953.541 747.626 951.255 743.972 946.881C743.684 946.539 743.333 946.125 742.91 945.648C739.661 941.94 732.92 934.209 732.407 926.964C732.362 926.415 732.038 925.938 731.525 925.713L706.001 914.229C705.497 913.995 704.903 914.067 704.462 914.418C704.021 914.769 703.814 915.327 703.922 915.876C704.93 920.961 693.113 935.82 685.436 943.992H685.445H685.463Z" fill="black"/>
<path d="M901.815 967.545C901.716 968.031 901.851 968.517 902.193 968.877C902.517 969.228 903.021 969.39 903.498 969.318L924.81 966.015C925.206 965.952 925.557 965.727 925.8 965.403C926.034 965.07 926.124 964.656 926.07 964.26L925.359 960.453C934.71 961.2 947.085 960.219 960.495 957.663C969.081 956.025 977.532 953.469 985.614 950.049C985.776 949.986 985.938 949.878 986.064 949.761C986.415 949.419 986.604 948.915 986.505 948.411C986.019 945.819 984.966 943.695 983.364 942.111C979.62 938.403 974.31 939.06 968.685 939.735C963.897 940.32 958.479 940.977 953.079 939.186C952.656 939.051 952.134 938.88 951.531 938.7C946.815 937.26 937.014 934.236 932.766 928.35C932.442 927.909 931.911 927.675 931.362 927.747L903.615 931.428C903.066 931.491 902.598 931.869 902.409 932.391C902.22 932.913 902.346 933.507 902.715 933.912C906.243 937.701 904.029 956.556 901.806 967.545H901.815Z" fill="black"/>
<path d="M782.151 575.577L876.651 580.977L953.151 917.577C953.151 917.577 943.89 924.444 914.946 925.47C886.011 926.496 873.933 921.69 873.933 921.69L812.742 666.477C812.742 666.477 782.142 642.177 780.342 613.377C779.694 603.009 782.142 575.577 782.142 575.577" fill="black"/>
<path d="M785.373 550.53L865.113 601.524L766.941 932.454C766.941 932.454 755.502 933.903 729.771 920.619C704.04 907.335 695.868 897.237 695.868 897.237L764.151 654.777C764.151 654.777 755.457 627.669 768.228 588.393C771.441 578.511 785.364 550.539 785.364 550.539" fill="black"/>
<path d="M807.241 431.694V401.013C807.241 401.013 791.896 400.05 795.73 389.502C799.564 378.954 808.195 387.585 808.195 387.585C808.195 387.585 812.992 377.037 818.743 371.286C824.494 365.535 834.088 361.701 841.756 362.655C849.424 363.618 856.138 367.452 858.055 375.12C859.972 382.788 858.055 400.05 857.092 404.847C856.129 409.644 851.305 417.357 846.526 420.21C846.562 423.045 846.526 433.557 846.526 433.557L807.232 431.694H807.241Z" fill="white"/>
<path d="M839.85 365.535C840.732 366.084 838.563 369.414 832.182 371.286C826.818 372.861 823.551 372.249 823.551 372.249C823.551 372.249 820.014 379.179 817.8 381.834C813.003 387.585 808.215 387.585 808.215 387.585C808.215 387.585 805.083 384.183 802.464 383.751C800.277 383.391 796.713 384.714 795.75 388.548C794.787 392.382 796.713 398.133 808.215 400.059C808.215 407.727 808.215 412.524 808.215 412.524C808.215 412.524 790.953 415.404 786.156 405.81C781.359 396.216 787.596 392.769 787.596 392.769C787.596 392.769 777.525 385.677 782.322 374.166C785.625 366.246 793.14 367.407 793.14 367.407C793.14 367.407 792.033 355.131 797.667 350.199C805.335 343.485 813.012 347.319 813.012 347.319C813.012 347.319 813.012 341.568 820.68 338.688C828.348 335.808 840.363 342.315 843.693 347.319C852.324 344.439 859.992 348.282 863.826 354.033C867.228 359.145 866.328 369.171 864.789 372.249C862.872 376.083 859.038 377.046 859.038 377.046C859.038 377.046 847.527 374.166 839.859 365.535H839.85Z" fill="black"/>
<path d="M727.087 625.887C727.087 625.887 720.265 643.671 718.762 648.81C717.259 653.949 714.892 677.322 717.511 682.974C720.13 688.626 718.681 688.086 722.506 688.734C722.65 690.975 725.539 692.01 727.483 690.876C728.743 691.992 732.28 694.197 732.532 690.237C732.784 686.277 733.153 675.234 734.395 667.998C735.637 660.762 739.021 657.36 740.434 662.481C741.847 667.602 738.175 671.22 737.671 675.045C737.176 678.861 737.572 682.443 739.993 680.319C742.414 678.195 746.851 670.59 748.831 662.427C750.811 654.264 748.615 630.927 748.615 630.927L727.078 625.887H727.087Z" fill="white"/>
<path d="M725.305 632.43C723.514 637.083 721.786 641.763 720.256 646.488C718.798 651.141 717.16 655.92 716.854 660.78C716.656 668.07 717.403 675.513 718.456 682.722C718.888 684.45 719.338 688.365 721.597 688.311L721.669 688.572C720.265 689.202 718.933 687.843 718.24 686.772C713.281 678.249 713.407 662.328 716.494 653.13C718.816 645.975 721.84 639.09 725.053 632.313L725.296 632.421L725.305 632.43Z" fill="black"/>
<path d="M723.209 657.828C722.174 662.211 720.932 666.711 720.869 671.211C721.004 674.235 721.247 677.268 721.733 680.238C722.336 683.046 722.768 686.034 723.668 688.68C724.145 689.913 724.802 690.93 726.467 690.75L726.566 691.002C725.045 692.361 722.804 691.245 721.832 689.733C719.897 687.033 719.474 683.667 719.402 680.481C719.276 677.376 719.321 674.289 719.519 671.193C719.951 666.522 721.481 662.139 722.948 657.747L723.209 657.828Z" fill="black"/>
<path d="M728.833 660.159C727.87 663.786 726.934 667.449 726.367 671.13C725.917 674.766 726.115 678.609 726.349 682.272C726.7 684.936 726.817 688.527 728.923 690.282C729.211 690.444 729.463 690.543 729.544 690.534C729.607 690.534 729.589 690.588 729.76 690.453C730.489 689.679 730.759 688.41 731.047 687.276C731.47 685.521 731.731 683.658 732.082 681.768L732.352 681.75C732.901 683.622 733.126 685.539 733.108 687.528C733.027 689.13 732.883 690.867 731.749 692.28C730.741 693.603 728.626 693.54 727.456 692.676C723.46 689.949 724.486 680.922 724.675 676.638C724.999 670.932 726.727 665.415 728.572 660.069L728.833 660.15V660.159Z" fill="black"/>
<path d="M733.253 675.495C733.019 672.201 733.199 668.898 733.892 665.649C734.324 663.597 734.702 661.014 736.745 659.619C737.852 658.773 739.499 659.097 740.084 660.285C740.318 660.735 740.453 661.167 740.462 661.644L740.219 661.761C739.859 661.518 739.526 661.284 739.202 661.149C738.887 660.996 738.59 660.996 738.5 661.086C738.293 661.338 737.663 662.553 737.438 663.129C736.124 665.541 735.233 668.115 734.567 670.788C734.144 672.336 733.82 673.911 733.532 675.504H733.262L733.253 675.495Z" fill="black"/>
<path d="M740.93 665.424C740.084 667.611 735.917 679.347 739.13 679.977C740.948 679.041 741.821 676.764 742.82 675.018C743.981 672.696 744.98 670.275 745.979 667.827C747.824 663.12 748.526 657.918 748.598 652.86C748.544 647.622 748.382 642.357 748.508 637.029L748.778 636.993C750.299 642.834 751.217 648.801 751.37 654.84C751.055 662.364 747.968 669.312 744.341 675.819C743.072 677.79 741.839 680.571 739.382 681.318C737.906 681.642 736.907 679.905 736.871 678.78C736.7 674.028 738.851 669.555 740.678 665.298L740.93 665.406V665.424Z" fill="black"/>
<path d="M972.539 484.581L995.347 485.972C997.173 486.083 998.744 484.693 998.855 482.867L1001.57 438.373C1001.68 436.547 1000.29 434.977 998.464 434.866L975.656 433.475C973.83 433.363 972.26 434.753 972.148 436.579L969.435 481.073C969.323 482.899 970.713 484.469 972.539 484.581Z" fill="black"/>
<path d="M974.182 494.811C974.182 494.811 976.027 487.683 979.15 485.289C982.273 482.895 1001.98 475.875 1001.27 471.735C1000.56 467.595 997.51 469.503 997.51 469.503C997.51 469.503 1002.14 468.351 1002.05 465.165C1001.97 461.979 997.213 463.284 997.213 463.284C997.213 463.284 1002.96 460.917 1002.3 457.902C1001.63 454.887 999.895 456.138 999.895 456.138C999.895 456.138 1003.94 453.339 1002.02 451.116C1000.1 448.893 981.22 457.776 977.341 457.812C973.462 457.848 971.194 457.641 971.464 452.061L971.905 442.971C971.905 442.971 972.688 439.794 965.497 452.448C958.306 465.102 956.893 467.613 954.778 477.612C952.663 487.611 950.836 492.309 950.836 492.309L974.182 494.802V494.811Z" fill="white"/>
<path d="M997.482 469.377C1000.98 468.603 1002.88 470.736 1000.91 473.949C999.309 475.992 996.753 476.865 994.629 478.08C991.803 479.511 989.04 481.23 986.133 482.571C985.071 483.075 983.847 483.579 982.749 484.029C981.075 484.713 979.725 486.009 978.375 487.35C977.304 488.484 976.251 489.681 975.405 491.04L975.153 490.941C976.026 487.647 977.907 484.776 980.571 482.562C983.298 480.798 986.295 479.34 989.256 477.99C990.741 477.36 992.208 476.667 993.765 476.1C996.177 475.02 1000.55 474.426 1000.91 471.366C1001.01 469.701 998.805 469.53 997.527 469.647L997.482 469.377Z" fill="black"/>
<path d="M981.76 474.085C983.605 473.437 1006.47 466.3 1000.14 463.609C999.652 463.384 999.103 463.204 998.527 463.087L998.5 462.817C999.085 462.601 999.724 462.511 1000.38 462.529C1003.46 462.583 1004.11 465.634 1002.34 467.848C1000.36 470.143 997.942 470.602 995.674 471.367C993.388 472.078 991.102 472.663 988.789 473.149C986.476 473.617 984.163 474.049 981.823 474.355L981.769 474.094L981.76 474.085Z" fill="black"/>
<path d="M1000.44 455.85C1002.22 455.382 1003.72 456.669 1003.54 458.541C1003.43 459.801 1002.53 460.863 1001.71 461.673C999.949 463.41 997.744 464.193 995.665 465.093C991.498 466.83 987.214 468.243 982.759 468.936L982.705 468.675C986.863 467.217 990.859 465.237 994.702 463.131C996.889 461.772 999.148 460.341 1001.15 458.793C1001.43 458.523 1001.67 458.298 1001.76 457.938C1002.06 457.029 1001.29 456.453 1000.44 456.129V455.859L1000.44 455.85Z" fill="black"/>
<path d="M998.608 450.523C1000.47 449.866 1002.59 450.577 1002.84 452.773C1003.11 456.175 996.835 458.866 994.441 460.351C992.119 461.692 989.617 462.961 987.034 463.753C984.451 464.572 981.832 465.265 979.069 465.553L978.97 465.301C982.903 462.565 987.16 460.621 991.633 459.082L993.496 458.344C995.611 457.354 1003.14 454.906 1001.8 452.008C1001.44 450.874 999.94 450.55 998.68 450.784L998.608 450.523Z" fill="black"/>
<path d="M997.672 451.405C991.651 453.907 984.388 456.535 978.322 458.956C973.543 461.116 968.503 457.471 971.536 452.512L971.797 452.593C971.797 453.934 972.022 455.212 972.616 455.977C973.822 457.444 975.91 456.778 977.503 456.346C979.087 455.932 980.707 455.545 982.291 455.122L989.923 453.079C992.479 452.44 995.026 451.765 997.6 451.162L997.681 451.423L997.672 451.405Z" fill="black"/>
<path d="M951.223 490.951C952.051 474.04 960.313 458.461 969.88 444.862L970.105 445.015C965.866 452.107 962.293 459.721 959.278 467.38C957.298 473.221 955.957 479.323 953.761 485.137C953.068 487.108 952.339 489.061 951.493 491.005L951.232 490.942L951.223 490.951Z" fill="black"/>
<path d="M867.651 534.177C867.651 534.177 880.872 573.453 900.816 588.915C920.76 604.377 944.151 598.077 952.251 584.577C960.351 571.077 983.751 496.377 983.751 496.377L942.351 485.577L922.551 533.772C922.551 533.772 899.151 475.677 891.951 459.477C884.751 443.277 870.981 434.142 845.151 433.377C819.321 432.612 867.651 534.177 867.651 534.177Z" fill="#778CF7"/>
<path d="M825.548 414.702C832.496 417.348 840.632 420.228 847.652 416.835C851.09 415.008 854.069 412.398 855.392 408.636C858.344 400.05 857.885 390.483 858.29 381.465C858.254 378.45 858.542 375.363 857.957 372.393C857.957 372.384 857.957 372.384 857.957 372.393C857.975 372.393 857.921 372.393 858.056 372.42V372.06C858.218 372.096 858.173 372.114 858.209 372.132C858.236 372.159 858.245 372.177 858.254 372.186L858.308 372.276C859.163 375.228 859.136 378.387 859.388 381.438C859.658 391.284 861.341 405.576 855.95 414.162C850.442 422.136 842 423.594 833.45 419.949C830.48 418.707 827.726 417.078 825.332 414.999L825.53 414.693L825.548 414.702Z" fill="black"/>
<path d="M805.325 388.548C805.325 388.548 802.445 386.631 800.528 388.548C798.611 390.465 798.809 395.631 803.984 395.442" stroke="black" stroke-width="1.8" stroke-miterlimit="10"/>
<path d="M841.784 383.931C843.08 387.252 844.115 390.663 845.33 394.011C845.834 395.1 845.042 396.414 843.953 396.639C842.261 396.819 840.497 396.324 838.85 395.685V395.46C840.272 394.839 841.685 394.596 843.107 394.452C843.35 394.443 843.305 394.425 843.314 394.416C843.215 394.407 843.143 394.713 843.206 394.821C842.684 391.203 841.991 387.621 841.559 383.994L841.775 383.94L841.784 383.931Z" fill="black"/>
<path d="M807.17 432.468C806.531 427.122 806.351 421.758 805.847 416.412C805.613 413.118 806.216 409.851 807.62 406.818H807.98C809.825 410.922 809.708 415.341 809.015 419.661C808.637 423.936 808.133 428.211 807.53 432.468H807.17Z" fill="black"/>
<path d="M832.55 400.977C832.55 400.977 833.396 404.604 837.518 406.008C840.677 407.088 842.873 405.468 842.873 405.468" stroke="black" stroke-width="2.7" stroke-miterlimit="10"/>
<path d="M924.188 558.549C921.227 553.914 919.175 548.757 918.437 543.285C918.113 539.865 919.301 535.896 922.415 534.051L922.685 534.285C922.307 536.481 922.217 538.38 922.181 540.315C922.181 542.223 921.785 544.176 921.929 546.21C922.037 548.226 922.415 550.26 922.82 552.303C923.279 554.355 923.891 556.371 924.503 558.396L924.179 558.549H924.188Z" fill="black"/>
<path d="M942.396 485.406C949.614 486.837 956.814 488.358 963.978 490.014C969.405 491.094 974.805 492.237 979.872 494.55C981.573 495.279 983.265 496.071 984.894 497.052L984.795 497.403C977.307 497.385 970.161 495.333 963.213 492.795C956.202 490.563 949.236 488.205 942.297 485.757L942.396 485.406Z" fill="black"/>
<path d="M942.522 485.64C939.714 493.938 936.816 502.2 933.792 510.417C931.686 516.654 929.499 522.846 926.205 528.579C925.152 530.514 924.027 532.413 922.722 534.249L922.389 534.114C923.838 525.366 927.258 517.239 931.119 509.337C934.701 501.345 938.391 493.407 942.189 485.514L942.522 485.649V485.64Z" fill="black"/>
<path d="M824.433 431.397C840.858 429.849 857.949 431.649 873.096 438.552C891.384 448.353 903.309 477.702 910.545 496.296C915.243 508.59 918.978 521.208 923.172 533.655L922.839 533.799C914.676 515.916 908.214 497.259 899.646 479.565C893.175 466.569 884.787 448.335 871.818 441.117C863.187 436.653 853.656 434.169 844.035 432.774C837.582 431.874 831.012 431.451 824.478 431.757L824.442 431.397H824.433Z" fill="black"/>
<path d="M802.849 431.578C802.849 431.578 772.573 429.769 752.449 463.978C734.449 494.578 712.849 630.478 712.849 630.478L759.649 642.178L778.549 521.578L768.649 581.878H882.049L859.549 467.578C859.549 467.578 879.349 442.378 851.449 434.278C832.792 428.86 802.849 431.578 802.849 431.578Z" fill="#778CF7"/>
<path d="M781.698 581.284C785.775 581.572 786.009 583.327 786.756 585.622L790.608 598.033C791.013 599.482 791.832 600.112 793.065 600.121H794.73C795.963 600.139 796.809 599.527 797.232 598.087L801.246 585.712C802.02 583.426 802.272 581.68 806.367 581.437L781.698 581.266V581.284Z" fill="#778CF7"/>
<path d="M794.714 432.702C785.417 433.827 776.831 438.579 769.748 444.528C755.393 456.822 747.59 474.579 742.316 492.39C734.189 519.426 729.662 547.353 724.073 575.01C720.428 593.487 716.9 612.009 713.066 630.504L712.616 630.441C714.146 611.604 716.693 592.875 719.762 574.227C722.768 555.57 726.89 537.102 731.534 518.769C736.421 500.481 741.083 481.842 750.47 465.201C758.678 450.828 771.449 438.129 787.667 433.512C789.962 432.873 792.284 432.387 794.678 432.243L794.696 432.693L794.714 432.702Z" fill="black"/>
<path d="M863.322 509.832C868.542 526.455 873.645 543.195 880.656 559.152C888.099 574.299 898.989 589.077 915.306 594.882C919.887 596.574 924.783 597.447 929.751 597.897V598.257C924.747 598.644 919.608 598.293 914.649 597.006C899.439 593.244 888.099 580.77 881.052 567.333C876.462 558.162 873.654 548.613 870.657 538.929C867.804 529.335 865.275 519.66 862.971 509.922L863.322 509.832Z" fill="black"/>
<path d="M790.412 650.196C794.696 658.044 802.022 663.858 809.753 668.034L810.212 668.268L810.383 668.808C815.918 686.259 822.353 705.339 826.682 723.042C828.212 729.153 829.706 735.273 830.948 741.465L830.606 741.564C828.239 735.705 826.124 729.765 824.054 723.825C817.97 706.68 812.849 687.15 807.908 669.546L808.538 670.32C806.495 669.087 804.659 667.764 802.841 666.324C797.504 662.04 792.698 656.748 790.079 650.358L790.403 650.205L790.412 650.196Z" fill="white"/>
<path d="M775.176 546.813C770.955 578.52 766.023 613.359 761.577 644.976C744.828 641.232 728.241 636.723 711.987 631.188L712.086 630.747C716.154 631.26 720.195 631.881 724.218 632.565C736.287 634.626 748.293 637.011 760.182 639.909L757.365 641.799C758.04 637.83 758.787 633.87 759.534 629.919C762.873 611.856 766.941 588.501 770.307 570.492L774.735 546.741L775.176 546.813Z" fill="black"/>
<path d="M850.165 386.181C851.213 386.181 852.064 385.331 852.064 384.282C852.064 383.234 851.213 382.383 850.165 382.383C849.116 382.383 848.266 383.234 848.266 384.282C848.266 385.331 849.116 386.181 850.165 386.181Z" fill="black"/>
<path d="M831.048 385.812C832.097 385.812 832.947 384.962 832.947 383.913C832.947 382.865 832.097 382.014 831.048 382.014C830 382.014 829.149 382.865 829.149 383.913C829.149 384.962 830 385.812 831.048 385.812Z" fill="black"/>
<path d="M853.809 377.622C853.809 377.622 852.216 376.695 850.263 376.668C848.31 376.641 846.726 377.334 846.726 377.334" stroke="black" stroke-width="2.7" stroke-miterlimit="10"/>
<path d="M835.088 378.036C835.088 378.036 832.991 376.596 831.218 376.929C829.787 377.199 827.843 378.477 827.843 378.477" stroke="black" stroke-width="2.7" stroke-miterlimit="10"/>
</g>
<path d="M132 949H643" stroke="#131825" stroke-width="2.7"/>
<path d="M786 949L879 949" stroke="#131825" stroke-width="2.7"/>
<path d="M1006 949H1793" stroke="#131825" stroke-width="2.7"/>
<defs>
<clipPath id="clip0_343_2115">
<rect width="1045.63" height="838.269" fill="white" transform="translate(437 135)"/>
</clipPath>
</defs>
</svg>
